<?xml version="1.0" encoding="utf-8"?>
<!-- Generator: Adobe Illustrator 26.0.1, SVG Export Plug-In . SVG Version: 6.00 Build 0)  -->
<svg version="1.1" id="Layer_1" xmlns="http://www.w3.org/2000/svg" xmlns:xlink="http://www.w3.org/1999/xlink" x="0px" y="0px"
	 viewBox="0 0 715.06 575.49" style="enable-background:new 0 0 715.06 575.49;" xml:space="preserve">
<style type="text/css">
	.st0{fill:#D1D3D4;}
	.st1{fill:#939598;}
	.st2{fill:#FBB06B;}
	.st3{fill:#BCBEC0;}
	.st4{fill:#E6E7E8;}
	.st5{fill:#F9CBA5;}
	.st6{fill:#EF4323;}
	.st7{fill:#3C2415;}
	.st8{fill:#8B5E3C;}
	.st9{fill:#C4301C;}
	.st10{fill:#1E1109;}
	.st11{fill:#5B3B24;}
	.st12{fill:#F9A01B;}
	.st13{fill:#FED600;}
	.st14{fill:#6B163C;}
	.st15{fill:#4C0A2A;}
	.st16{fill:#90AC3D;}
	.st17{fill:#FFFFFF;}
	.st18{fill:#ACC941;}
	.st19{fill:#688300;}
	.st20{fill:#576F00;}
	.st21{fill:#405A2A;}
	.st22{fill:#FFC017;}
	.st23{fill:#FFE03E;}
	.st24{fill:#739100;}
	.st25{fill:#A8D137;}
	.st26{fill:#90B400;}
	.st27{fill:#840719;}
	.st28{fill:#BD161E;}
	.st29{fill:#A00B1A;}
	.st30{fill:#F9F916;}
	.st31{fill:#D61E30;}
	.st32{fill:#C9E536;}
	.st33{fill:#9DC12B;}
	.st34{fill:#7CA52B;}
	.st35{fill:#FEAB00;}
	.st36{fill:#F88729;}
	.st37{fill:#C64817;}
	.st38{fill:#27AAE1;}
	.st39{fill:#1C75BC;}
	.st40{fill:#FBC71C;}
	.st41{fill:#475324;}
	.st42{fill:#8DD13F;}
	.st43{fill:#33510C;}
	.st44{opacity:0.6;fill:#33510C;}
	.st45{fill:#6D6E71;}
	.st46{fill:#EA062B;}
	.st47{fill:#414042;}
</style>
<ellipse class="st0" cx="384.04" cy="570.85" rx="273.23" ry="11.59"/>
<g>
	<g>
		
			<rect x="321.31" y="203.87" transform="matrix(0.9461 -0.3238 0.3238 0.9461 -46.5357 135.9387)" class="st1" width="127.81" height="7.86"/>
		<path class="st2" d="M363.69,221.07c2.8,8.46,9.09,10.6,15.3,8.54c6.2-2.06,9.97-7.53,7.17-15.99
			c-2.8-8.46-10.75-15.59-16.95-13.53C363,202.15,360.88,212.62,363.69,221.07z"/>
		<path class="st2" d="M334.83,230.95c2.8,8.46,9.09,10.6,15.29,8.54c6.2-2.05,9.97-7.53,7.17-15.98
			c-2.8-8.46-10.75-15.58-16.95-13.53C334.15,212.03,332.03,222.49,334.83,230.95z"/>
		<polygon class="st3" points="376.57,242.35 388.94,238.12 386.11,218.84 366.98,225.39 		"/>
		<polygon class="st3" points="347.72,252.23 360.08,248 357.26,228.71 338.13,235.26 		"/>
		<path class="st2" d="M419.63,201.92c2.8,8.46,9.09,10.6,15.29,8.54c6.2-2.06,9.97-7.53,7.17-15.98
			c-2.8-8.46-10.74-15.59-16.95-13.53C418.94,183.01,416.82,193.47,419.63,201.92z"/>
		<path class="st2" d="M391.62,211.51c2.8,8.46,9.09,10.6,15.3,8.54c6.2-2.06,9.97-7.53,7.16-15.99
			c-2.8-8.46-10.74-15.58-16.95-13.53C390.93,192.59,388.82,203.05,391.62,211.51z"/>
		<polygon class="st3" points="432.51,223.21 444.88,218.98 442.06,199.69 422.92,206.24 		"/>
		<polygon class="st3" points="404.5,232.79 416.87,228.56 414.05,209.27 394.91,215.82 		"/>
		
			<rect x="329.52" y="214.71" transform="matrix(0.9461 -0.3238 0.3238 0.9461 -50.5042 138.7374)" class="st0" width="124.25" height="12.84"/>
		
			<rect x="323.33" y="210.68" transform="matrix(0.9461 -0.3238 0.3238 0.9461 -48.1047 137.6004)" class="st4" width="132.15" height="5.33"/>
		<path class="st5" d="M428.82,189.04c1.81,2.27,3.24,3.82,5.04,2.39c1.79-1.43,1.29-3.27-0.53-5.54c-1.81-2.27-4.33-3.23-6.12-1.8
			C425.4,185.53,427.01,186.77,428.82,189.04z"/>
		<path class="st5" d="M400.94,198.59c1.81,2.27,3.24,3.82,5.03,2.39c1.8-1.43,1.29-3.27-0.53-5.55c-1.81-2.27-4.33-3.23-6.13-1.79
			C397.53,195.07,399.13,196.31,400.94,198.59z"/>
		<path class="st5" d="M372.42,208.35c1.81,2.27,3.24,3.82,5.04,2.39c1.79-1.43,1.28-3.27-0.53-5.55c-1.81-2.27-4.33-3.23-6.12-1.8
			C369,204.83,370.6,206.08,372.42,208.35z"/>
		<path class="st5" d="M344.54,217.89c1.81,2.27,3.24,3.82,5.03,2.39c1.8-1.43,1.29-3.27-0.53-5.55c-1.81-2.27-4.33-3.23-6.13-1.8
			C341.13,214.37,342.73,215.62,344.54,217.89z"/>
		<g>
			<polygon class="st3" points="357.21,185.79 369.58,181.56 379.17,198.53 360.03,205.08 			"/>
			<polygon class="st3" points="328.36,195.67 340.72,191.44 350.31,208.41 331.18,214.96 			"/>
			<polygon class="st3" points="413.15,166.65 425.52,162.41 435.11,179.38 415.97,185.93 			"/>
			<polygon class="st3" points="385.14,176.23 397.51,172 407.1,188.97 387.96,195.52 			"/>
			
				<rect x="320.01" y="186.9" transform="matrix(0.9461 -0.3238 0.3238 0.9461 -42.012 134.1572)" class="st0" width="124.25" height="12.84"/>
			
				<rect x="319.05" y="198.19" transform="matrix(0.9461 -0.3238 0.3238 0.9461 -44.2914 135.5388)" class="st4" width="132.15" height="5.33"/>
		</g>
	</g>
	<g>
		<polygon class="st6" points="439.26,199.55 435.52,191.71 439.65,194 442.1,192.18 444.09,193.89 446.91,194.37 444.52,199.92 		
			"/>
		<polygon class="st6" points="432.64,289.98 428.4,297.41 432.22,295.96 434.97,298.44 435.95,296.22 439.4,297.46 438.61,290.4 		
			"/>
		<g>
			<path class="st6" d="M443.51,197.43c-0.37-0.05-0.74-0.1-1.12-0.14C442.77,197.33,443.14,197.38,443.51,197.43z"/>
			<path class="st6" d="M457.33,279.31c0.07-0.18,0.15-0.36,0.22-0.55C457.48,278.94,457.4,279.13,457.33,279.31z"/>
			<path class="st6" d="M457.73,278.27c0.06-0.18,0.13-0.36,0.19-0.54C457.86,277.91,457.79,278.09,457.73,278.27z"/>
			<path class="st6" d="M459.7,208.55c-0.12-0.21-0.25-0.43-0.38-0.63C459.45,208.13,459.58,208.34,459.7,208.55z"/>
			<path class="st6" d="M458.08,277.19c0.05-0.17,0.11-0.34,0.16-0.52C458.19,276.85,458.14,277.02,458.08,277.19z"/>
			<path class="st6" d="M447.79,198.51c-0.34-0.12-0.68-0.24-1.03-0.34C447.1,198.27,447.45,198.39,447.79,198.51z"/>
			<path class="st6" d="M446.75,198.17c-1.05-0.32-2.13-0.56-3.24-0.73C444.62,197.6,445.7,197.84,446.75,198.17z"/>
			<path class="st6" d="M462.62,218.93c-0.01-0.16-0.02-0.31-0.03-0.47C462.6,218.61,462.62,218.77,462.62,218.93z"/>
			<path class="st6" d="M456.87,280.32c0.09-0.18,0.18-0.37,0.26-0.55C457.05,279.95,456.96,280.14,456.87,280.32z"/>
			<path class="st6" d="M440.12,292.84c0.36-0.06,0.72-0.12,1.07-0.2C440.84,292.72,440.48,292.78,440.12,292.84z"/>
			<path class="st6" d="M460.21,209.49c-0.11-0.21-0.22-0.42-0.34-0.63C459.99,209.07,460.1,209.28,460.21,209.49z"/>
			<path class="st6" d="M441.19,292.64c0.35-0.07,0.7-0.15,1.05-0.24C441.9,292.49,441.55,292.57,441.19,292.64z"/>
			<path class="st6" d="M462.44,216.7c-0.02-0.18-0.06-0.36-0.08-0.53C462.39,216.34,462.42,216.52,462.44,216.7z"/>
			<path class="st6" d="M436.81,293.11c1.12-0.01,2.23-0.1,3.31-0.27C439.03,293.01,437.93,293.1,436.81,293.11z"/>
			<path class="st6" d="M435.68,293.09c0.38,0.02,0.75,0.02,1.13,0.02C436.43,293.12,436.06,293.11,435.68,293.09z"/>
			<path class="st6" d="M448.79,198.9c-0.33-0.14-0.67-0.27-1.01-0.39C448.13,198.63,448.46,198.76,448.79,198.9z"/>
			<path class="st6" d="M458.84,273.75c0.02-0.12,0.04-0.25,0.05-0.38C458.88,273.5,458.85,273.63,458.84,273.75z"/>
			<path class="st6" d="M454.27,202.15c-0.25-0.2-0.5-0.4-0.76-0.58C453.76,201.76,454.02,201.95,454.27,202.15z"/>
			<path class="st6" d="M456.37,281.31c0.1-0.19,0.2-0.37,0.3-0.56C456.57,280.94,456.47,281.12,456.37,281.31z"/>
			<path class="st6" d="M458.57,206.76c-0.15-0.22-0.31-0.43-0.47-0.65C458.26,206.33,458.42,206.54,458.57,206.76z"/>
			<path class="st6" d="M455.84,203.55c-0.22-0.21-0.44-0.42-0.67-0.62C455.4,203.14,455.62,203.34,455.84,203.55z"/>
			<path class="st6" d="M455.07,202.84c-0.23-0.21-0.47-0.41-0.72-0.61C454.6,202.43,454.84,202.63,455.07,202.84z"/>
			<path class="st6" d="M462.63,220.06c0-0.13,0-0.26,0-0.39C462.62,219.8,462.63,219.93,462.63,220.06z"/>
			<path class="st6" d="M456.58,204.3c-0.2-0.21-0.41-0.42-0.62-0.63C456.17,203.88,456.38,204.09,456.58,204.3z"/>
			<path class="st6" d="M462.56,217.81c-0.01-0.17-0.03-0.34-0.05-0.51C462.52,217.47,462.55,217.64,462.56,217.81z"/>
			<path class="st6" d="M458.39,276.09c0.04-0.17,0.09-0.33,0.12-0.5C458.47,275.76,458.43,275.92,458.39,276.09z"/>
			<path class="st6" d="M450.73,199.82c-0.31-0.16-0.62-0.32-0.93-0.47C450.11,199.5,450.43,199.65,450.73,199.82z"/>
			<path class="st6" d="M449.78,199.34c-0.32-0.15-0.64-0.3-0.97-0.43C449.14,199.04,449.46,199.18,449.78,199.34z"/>
			<path class="st6" d="M458.64,274.96c0.03-0.16,0.07-0.31,0.09-0.47C458.7,274.65,458.67,274.8,458.64,274.96z"/>
			<path class="st6" d="M452.56,200.91c-0.28-0.19-0.56-0.37-0.85-0.54C452,200.54,452.28,200.72,452.56,200.91z"/>
			<path class="st6" d="M451.66,200.34c-0.29-0.17-0.59-0.34-0.9-0.5C451.07,200,451.37,200.17,451.66,200.34z"/>
			<path class="st6" d="M459.16,207.64c-0.14-0.22-0.28-0.43-0.43-0.64C458.88,207.21,459.02,207.42,459.16,207.64z"/>
			<path class="st6" d="M453.43,201.51c-0.26-0.2-0.53-0.38-0.81-0.56C452.89,201.13,453.16,201.32,453.43,201.51z"/>
			<path class="st6" d="M452.46,286.55c0.19-0.19,0.38-0.38,0.56-0.57C452.84,286.17,452.65,286.36,452.46,286.55z"/>
			<path class="st6" d="M447.67,273.72c-0.58,8.35-5.29,15.42-11.99,19.37c-0.22-0.01-0.43-0.01-0.65-0.03
				c-12.37-0.87-21.7-11.6-20.83-23.97l0.34-4.82l33.63,2.36L447.67,273.72z"/>
			<path class="st6" d="M461.78,213.48c-0.05-0.2-0.12-0.39-0.18-0.58C461.66,213.09,461.72,213.28,461.78,213.48z"/>
			<path class="st6" d="M450.86,288c0.22-0.18,0.44-0.37,0.65-0.55C451.29,287.64,451.08,287.82,450.86,288z"/>
			<path class="st6" d="M453.93,284.94c0.16-0.19,0.31-0.38,0.47-0.58C454.24,284.56,454.08,284.75,453.93,284.94z"/>
			<path class="st6" d="M450,288.67c0.24-0.18,0.47-0.36,0.7-0.54C450.48,288.32,450.24,288.49,450,288.67z"/>
			<path class="st6" d="M442.25,292.39c0.34-0.09,0.68-0.19,1.02-0.29C442.94,292.21,442.6,292.3,442.25,292.39z"/>
			<path class="st6" d="M453.21,285.76c0.17-0.19,0.35-0.38,0.51-0.58C453.56,285.38,453.38,285.57,453.21,285.76z"/>
			<path class="st6" d="M462.05,214.54c-0.04-0.19-0.1-0.38-0.15-0.57C461.95,214.16,462,214.35,462.05,214.54z"/>
			<path class="st6" d="M457.28,205.09c-0.19-0.22-0.38-0.43-0.57-0.64C456.9,204.66,457.1,204.87,457.28,205.09z"/>
			<path class="st6" d="M461.45,212.45c-0.07-0.2-0.14-0.4-0.22-0.6C461.31,212.05,461.39,212.25,461.45,212.45z"/>
			<path class="st6" d="M451.56,218.15l-0.5,7.1l-33.63-2.36l0.34-4.82c0.87-12.37,11.6-21.7,23.97-20.84
				c0.22,0.01,0.43,0.04,0.65,0.06C448.47,202.14,452.15,209.8,451.56,218.15z"/>
			<path class="st6" d="M449.12,289.3c0.25-0.17,0.5-0.34,0.75-0.52C449.62,288.95,449.37,289.13,449.12,289.3z"/>
			<path class="st6" d="M451.68,287.3c0.2-0.18,0.41-0.38,0.61-0.57C452.08,286.92,451.88,287.11,451.68,287.3z"/>
			<path class="st6" d="M455.82,282.26c0.11-0.19,0.23-0.38,0.34-0.57C456.05,281.89,455.94,282.07,455.82,282.26z"/>
			<path class="st6" d="M444.33,291.75c0.32-0.12,0.64-0.24,0.95-0.38C444.97,291.5,444.65,291.63,444.33,291.75z"/>
			<path class="st6" d="M461.08,211.44c-0.08-0.21-0.17-0.41-0.25-0.61C460.92,211.03,461.01,211.23,461.08,211.44z"/>
			<path class="st6" d="M460.67,210.45c-0.09-0.21-0.19-0.42-0.29-0.62C460.48,210.03,460.57,210.24,460.67,210.45z"/>
			<path class="st6" d="M457.94,205.91c-0.17-0.22-0.34-0.44-0.52-0.65C457.6,205.48,457.78,205.69,457.94,205.91z"/>
			<path class="st6" d="M443.3,292.09c0.33-0.1,0.66-0.21,0.99-0.33C443.96,291.88,443.63,291.99,443.3,292.09z"/>
			<path class="st6" d="M445.33,291.35c0.31-0.13,0.62-0.27,0.92-0.41C445.95,291.08,445.64,291.22,445.33,291.35z"/>
			<path class="st6" d="M455.23,283.19c0.13-0.19,0.26-0.39,0.38-0.58C455.49,282.81,455.36,283,455.23,283.19z"/>
			<path class="st6" d="M454.6,284.08c0.14-0.19,0.28-0.38,0.42-0.57C454.88,283.7,454.74,283.89,454.6,284.08z"/>
			<path class="st6" d="M448.21,289.88c0.27-0.16,0.53-0.33,0.79-0.5C448.75,289.55,448.48,289.72,448.21,289.88z"/>
			<path class="st6" d="M447.28,290.41c0.28-0.15,0.56-0.31,0.84-0.47C447.84,290.1,447.56,290.26,447.28,290.41z"/>
			<path class="st6" d="M462.27,215.61c-0.03-0.19-0.07-0.38-0.11-0.56C462.2,215.24,462.24,215.42,462.27,215.61z"/>
			<path class="st6" d="M446.32,290.9c0.29-0.14,0.58-0.29,0.88-0.45C446.9,290.61,446.61,290.76,446.32,290.9z"/>
			
				<rect x="432.72" y="208.63" transform="matrix(0.0699 -0.9976 0.9976 0.0699 178.8802 642.8242)" class="st7" width="2.85" height="33.71"/>
			
				<rect x="429.89" y="247.03" transform="matrix(0.0699 -0.9976 0.9976 0.0699 138.0497 675.8403)" class="st7" width="3.13" height="33.71"/>
			
				<rect x="418.05" y="227.76" transform="matrix(0.0699 -0.9976 0.9976 0.0699 158.5362 659.2722)" class="st7" width="29.51" height="33.71"/>
			
				<rect x="432.45" y="211.55" transform="matrix(0.0699 -0.9976 0.9976 0.0699 175.7545 645.3177)" class="st8" width="2.99" height="33.71"/>
			
				<rect x="430.18" y="243.98" transform="matrix(0.0699 -0.9976 0.9976 0.0699 141.3002 673.2151)" class="st8" width="2.99" height="33.71"/>
			<path class="st6" d="M462.51,217.3c-0.02-0.2-0.04-0.4-0.06-0.6C462.47,216.9,462.48,217.1,462.51,217.3z"/>
			<path class="st6" d="M462.16,215.05c-0.03-0.17-0.07-0.34-0.11-0.51C462.09,214.71,462.12,214.88,462.16,215.05z"/>
			<path class="st6" d="M462.6,218.45c-0.01-0.22-0.02-0.43-0.04-0.65C462.58,218.02,462.59,218.24,462.6,218.45z"/>
			<path class="st6" d="M462.36,216.17c-0.03-0.19-0.05-0.38-0.09-0.56C462.31,215.79,462.33,215.98,462.36,216.17z"/>
			<path class="st6" d="M455.02,283.5c0.07-0.1,0.14-0.21,0.21-0.31C455.16,283.29,455.09,283.4,455.02,283.5z"/>
			<path class="st6" d="M456.16,281.69c0.07-0.13,0.14-0.26,0.21-0.39C456.3,281.44,456.23,281.57,456.16,281.69z"/>
			<path class="st6" d="M454.39,284.36c0.07-0.09,0.14-0.19,0.21-0.29C454.53,284.17,454.46,284.27,454.39,284.36z"/>
			<path class="st6" d="M461.9,213.97c-0.04-0.16-0.08-0.32-0.13-0.48C461.82,213.64,461.86,213.8,461.9,213.97z"/>
			<path class="st6" d="M455.61,282.61c0.07-0.12,0.14-0.23,0.21-0.35C455.75,282.38,455.69,282.5,455.61,282.61z"/>
			<path class="st6" d="M462.63,219.67c0-0.25,0-0.5,0-0.75C462.63,219.18,462.63,219.43,462.63,219.67z"/>
			<path class="st6" d="M453.02,285.97c0.06-0.07,0.13-0.14,0.19-0.21C453.15,285.83,453.08,285.91,453.02,285.97z"/>
			<path class="st6" d="M451.51,287.45c0.06-0.05,0.11-0.1,0.17-0.15C451.62,287.35,451.57,287.4,451.51,287.45z"/>
			<path class="st6" d="M452.28,286.73c0.06-0.06,0.12-0.12,0.18-0.18C452.4,286.61,452.34,286.67,452.28,286.73z"/>
			<path class="st6" d="M453.73,285.19c0.07-0.08,0.13-0.16,0.2-0.24C453.86,285.02,453.79,285.1,453.73,285.19z"/>
			<path class="st6" d="M456.67,280.74c0.07-0.14,0.13-0.28,0.2-0.42C456.8,280.46,456.74,280.6,456.67,280.74z"/>
			<path class="st6" d="M458.51,275.59c0.05-0.21,0.09-0.42,0.13-0.64C458.6,275.17,458.56,275.38,458.51,275.59z"/>
			<path class="st6" d="M458.89,273.37c0.05-0.38,0.08-0.76,0.11-1.14C458.98,272.61,458.94,272.99,458.89,273.37z"/>
			<path class="st6" d="M462.58,221.21c0.03-0.38,0.04-0.76,0.05-1.14C462.62,220.44,462.6,220.82,462.58,221.21z"/>
			<path class="st6" d="M458.24,276.67c0.06-0.19,0.1-0.39,0.15-0.58C458.34,276.29,458.29,276.48,458.24,276.67z"/>
			<path class="st6" d="M457.92,277.73c0.06-0.18,0.11-0.36,0.16-0.54C458.03,277.37,457.98,277.55,457.92,277.73z"/>
			<path class="st6" d="M457.13,279.77c0.07-0.15,0.13-0.31,0.19-0.46C457.26,279.46,457.2,279.62,457.13,279.77z"/>
			<path class="st6" d="M457.55,278.76c0.06-0.16,0.12-0.33,0.18-0.49C457.67,278.43,457.61,278.6,457.55,278.76z"/>
			<path class="st6" d="M458.73,274.49c0.04-0.24,0.07-0.49,0.11-0.74C458.8,274,458.77,274.25,458.73,274.49z"/>
			<path class="st6" d="M440.12,292.84C440.12,292.84,440.12,292.84,440.12,292.84S440.12,292.84,440.12,292.84z"/>
			<path class="st6" d="M443.27,292.1c0.01,0,0.02,0,0.02-0.01C443.29,292.1,443.28,292.1,443.27,292.1z"/>
			<path class="st6" d="M441.19,292.64C441.19,292.64,441.19,292.64,441.19,292.64C441.19,292.64,441.19,292.64,441.19,292.64z"/>
			<path class="st6" d="M442.24,292.4c0.01,0,0.01,0,0.01,0C442.25,292.4,442.25,292.4,442.24,292.4z"/>
			<path class="st6" d="M436.81,293.11L436.81,293.11L436.81,293.11z"/>
			<path class="st6" d="M443.51,197.43L443.51,197.43L443.51,197.43z"/>
			<path class="st6" d="M446.75,198.17L446.75,198.17L446.75,198.17z"/>
			<polygon class="st6" points="442.39,197.29 442.39,197.29 442.39,197.29 			"/>
			<polygon class="st6" points="435.68,293.09 435.68,293.09 435.68,293.09 			"/>
			<path class="st6" d="M447.79,198.51C447.79,198.51,447.79,198.51,447.79,198.51S447.79,198.51,447.79,198.51z"/>
			<path class="st6" d="M449,289.38c0.04-0.03,0.08-0.05,0.12-0.08C449.08,289.32,449.04,289.35,449,289.38z"/>
			<path class="st6" d="M449.87,288.77c0.05-0.03,0.09-0.07,0.13-0.1C449.96,288.71,449.92,288.74,449.87,288.77z"/>
			<path class="st6" d="M444.29,291.76c0.01,0,0.02-0.01,0.04-0.01C444.31,291.75,444.3,291.76,444.29,291.76z"/>
			<path class="st6" d="M461.6,212.9c-0.05-0.15-0.09-0.3-0.14-0.45C461.5,212.6,461.55,212.75,461.6,212.9z"/>
			<path class="st6" d="M450.86,288c-0.05,0.05-0.1,0.08-0.15,0.13C450.76,288.09,450.8,288.05,450.86,288z"/>
			<path class="st6" d="M446.25,290.94c0.02-0.01,0.04-0.02,0.07-0.03C446.29,290.91,446.27,290.93,446.25,290.94z"/>
			<path class="st6" d="M448.11,289.94c0.03-0.02,0.07-0.04,0.1-0.06C448.18,289.9,448.15,289.92,448.11,289.94z"/>
			<path class="st6" d="M445.28,291.37c0.02-0.01,0.03-0.02,0.05-0.02C445.31,291.36,445.3,291.36,445.28,291.37z"/>
			<path class="st6" d="M447.19,290.46c0.03-0.02,0.06-0.03,0.08-0.05C447.25,290.43,447.22,290.44,447.19,290.46z"/>
			<path class="st6" d="M458.73,207c-0.05-0.08-0.11-0.16-0.16-0.24C458.63,206.84,458.68,206.92,458.73,207z"/>
			<path class="st6" d="M459.32,207.92c-0.06-0.09-0.11-0.19-0.17-0.27C459.21,207.73,459.27,207.82,459.32,207.92z"/>
			<path class="st6" d="M458.1,206.12c-0.05-0.07-0.1-0.14-0.15-0.2C458,205.98,458.05,206.05,458.1,206.12z"/>
			<path class="st6" d="M461.24,211.85c-0.05-0.14-0.1-0.28-0.15-0.41C461.14,211.58,461.19,211.72,461.24,211.85z"/>
			<path class="st6" d="M456.71,204.45c-0.04-0.05-0.09-0.1-0.13-0.15C456.62,204.35,456.67,204.4,456.71,204.45z"/>
			<path class="st6" d="M457.42,205.27c-0.05-0.06-0.09-0.12-0.14-0.17C457.33,205.15,457.38,205.21,457.42,205.27z"/>
			<path class="st6" d="M460.83,210.83c-0.05-0.12-0.1-0.25-0.16-0.38C460.73,210.58,460.78,210.7,460.83,210.83z"/>
			<path class="st6" d="M460.38,209.83c-0.06-0.12-0.11-0.23-0.16-0.34C460.27,209.6,460.32,209.71,460.38,209.83z"/>
			<path class="st6" d="M459.87,208.86c-0.06-0.1-0.11-0.21-0.17-0.31C459.76,208.65,459.82,208.76,459.87,208.86z"/>
			<path class="st6" d="M448.81,198.91c0,0-0.01,0-0.01-0.01C448.8,198.9,448.8,198.9,448.81,198.91z"/>
			<path class="st6" d="M452.62,200.95c-0.02-0.01-0.04-0.03-0.06-0.04C452.58,200.92,452.6,200.93,452.62,200.95z"/>
			<path class="st6" d="M450.76,199.84c-0.01-0.01-0.02-0.02-0.03-0.02C450.74,199.82,450.76,199.83,450.76,199.84z"/>
			<path class="st6" d="M451.71,200.37c-0.01-0.01-0.03-0.02-0.05-0.03C451.68,200.35,451.69,200.36,451.71,200.37z"/>
			<path class="st6" d="M449.8,199.35c-0.01,0-0.02-0.01-0.02-0.01C449.78,199.34,449.79,199.34,449.8,199.35z"/>
			<path class="st6" d="M453.5,201.57c-0.02-0.02-0.05-0.04-0.08-0.06C453.45,201.53,453.48,201.55,453.5,201.57z"/>
			<path class="st6" d="M455.18,202.93c-0.04-0.03-0.07-0.07-0.11-0.1C455.11,202.87,455.14,202.9,455.18,202.93z"/>
			<path class="st6" d="M455.96,203.67c-0.04-0.04-0.08-0.08-0.12-0.12C455.88,203.59,455.92,203.63,455.96,203.67z"/>
			<path class="st6" d="M454.35,202.23c-0.03-0.02-0.06-0.05-0.09-0.07C454.3,202.18,454.32,202.2,454.35,202.23z"/>
			<path class="st9" d="M450,288.67c-0.05,0.04-0.09,0.07-0.13,0.1c-0.25,0.18-0.49,0.35-0.75,0.52c-0.04,0.03-0.08,0.05-0.12,0.08
				c-0.26,0.17-0.52,0.34-0.79,0.5c-0.03,0.02-0.06,0.04-0.1,0.06c-0.27,0.16-0.55,0.32-0.84,0.47c-0.03,0.01-0.05,0.03-0.08,0.05
				c-0.29,0.16-0.58,0.3-0.88,0.45c-0.02,0.01-0.05,0.02-0.07,0.03c-0.3,0.14-0.61,0.28-0.92,0.41c-0.02,0.01-0.03,0.01-0.05,0.02
				c-0.32,0.13-0.63,0.26-0.95,0.38c-0.01,0.01-0.02,0.01-0.04,0.01c-0.33,0.12-0.66,0.23-0.99,0.33c-0.01,0.01-0.02,0.01-0.02,0.01
				c-0.34,0.11-0.68,0.2-1.02,0.29c0,0-0.01,0-0.01,0c-0.35,0.09-0.7,0.17-1.05,0.24c0,0,0,0,0,0c-0.35,0.07-0.71,0.14-1.07,0.2
				c0,0,0,0,0,0c-1.08,0.17-2.19,0.26-3.31,0.27l0,0c-0.37,0-0.75,0-1.13-0.02c0,0,0,0,0,0c6.7-3.95,11.41-11.02,11.99-19.37
				l0.5-7.1l11.17,0.78l-0.34,4.82c-0.03,0.38-0.06,0.76-0.11,1.14c-0.01,0.13-0.04,0.26-0.05,0.38c-0.04,0.25-0.07,0.5-0.11,0.74
				c-0.03,0.16-0.06,0.31-0.09,0.47c-0.04,0.21-0.08,0.43-0.13,0.64c-0.04,0.17-0.08,0.33-0.12,0.5c-0.05,0.2-0.09,0.39-0.15,0.58
				c-0.05,0.17-0.1,0.34-0.16,0.52c-0.05,0.18-0.11,0.36-0.16,0.54c-0.06,0.18-0.13,0.36-0.19,0.54c-0.06,0.16-0.12,0.33-0.18,0.49
				c-0.07,0.19-0.15,0.37-0.22,0.55c-0.07,0.16-0.13,0.31-0.19,0.46c-0.08,0.18-0.17,0.37-0.26,0.55c-0.07,0.14-0.13,0.28-0.2,0.42
				c-0.1,0.19-0.2,0.38-0.3,0.56c-0.07,0.13-0.14,0.26-0.21,0.39c-0.11,0.19-0.22,0.38-0.34,0.57c-0.07,0.12-0.14,0.24-0.21,0.35
				c-0.12,0.19-0.25,0.38-0.38,0.58c-0.07,0.1-0.14,0.21-0.21,0.31c-0.14,0.2-0.28,0.39-0.42,0.57c-0.07,0.1-0.14,0.19-0.21,0.29
				c-0.15,0.19-0.31,0.39-0.47,0.58c-0.07,0.08-0.13,0.16-0.2,0.24c-0.17,0.2-0.34,0.39-0.51,0.58c-0.06,0.07-0.13,0.14-0.19,0.21
				c-0.18,0.19-0.37,0.39-0.56,0.57c-0.06,0.06-0.12,0.12-0.18,0.18c-0.2,0.19-0.4,0.38-0.61,0.57c-0.06,0.05-0.11,0.1-0.17,0.15
				c-0.21,0.19-0.43,0.38-0.65,0.55c-0.05,0.05-0.1,0.08-0.15,0.13C450.48,288.31,450.24,288.49,450,288.67z"/>
			<path class="st9" d="M451.56,218.15c0.58-8.34-3.09-16-9.17-20.85h0c0.38,0.04,0.75,0.09,1.12,0.14l0,0
				c1.11,0.17,2.19,0.41,3.24,0.73l0,0c0.35,0.11,0.69,0.22,1.03,0.34c0,0,0,0,0,0c0.34,0.12,0.67,0.25,1.01,0.39
				c0,0,0.01,0,0.01,0.01c0.33,0.13,0.65,0.28,0.97,0.43c0.01,0,0.02,0.01,0.02,0.01c0.31,0.15,0.63,0.31,0.93,0.47
				c0.01,0,0.02,0.01,0.03,0.02c0.3,0.16,0.6,0.33,0.9,0.5c0.02,0.01,0.03,0.02,0.05,0.03c0.29,0.17,0.57,0.35,0.85,0.54
				c0.02,0.01,0.04,0.03,0.06,0.04c0.27,0.18,0.54,0.37,0.81,0.56c0.03,0.02,0.05,0.04,0.08,0.06c0.26,0.19,0.51,0.38,0.76,0.58
				c0.03,0.03,0.06,0.05,0.09,0.07c0.24,0.2,0.48,0.4,0.72,0.61c0.04,0.03,0.07,0.06,0.11,0.1c0.22,0.2,0.45,0.41,0.67,0.62
				c0.04,0.04,0.08,0.08,0.12,0.12c0.21,0.21,0.41,0.42,0.62,0.63c0.04,0.05,0.09,0.1,0.13,0.15c0.19,0.21,0.38,0.42,0.57,0.64
				c0.05,0.06,0.1,0.12,0.14,0.17c0.18,0.21,0.35,0.43,0.52,0.65c0.05,0.07,0.1,0.13,0.15,0.2c0.16,0.21,0.32,0.43,0.47,0.65
				c0.06,0.08,0.11,0.16,0.16,0.24c0.15,0.21,0.29,0.42,0.43,0.64c0.06,0.09,0.11,0.18,0.17,0.27c0.13,0.21,0.26,0.42,0.38,0.63
				c0.06,0.1,0.11,0.21,0.17,0.31c0.12,0.21,0.23,0.42,0.34,0.63c0.05,0.11,0.11,0.23,0.16,0.34c0.1,0.21,0.2,0.41,0.29,0.62
				c0.06,0.13,0.11,0.25,0.16,0.38c0.09,0.2,0.18,0.4,0.25,0.61c0.05,0.14,0.1,0.28,0.15,0.41c0.07,0.2,0.15,0.4,0.22,0.6
				c0.05,0.15,0.09,0.3,0.14,0.45c0.06,0.2,0.13,0.39,0.18,0.58c0.05,0.16,0.08,0.32,0.13,0.48c0.05,0.19,0.1,0.38,0.15,0.57
				c0.04,0.17,0.07,0.34,0.11,0.51c0.04,0.18,0.08,0.37,0.11,0.56c0.04,0.18,0.06,0.37,0.09,0.56c0.03,0.18,0.06,0.35,0.08,0.53
				c0.03,0.2,0.04,0.4,0.06,0.6c0.02,0.17,0.04,0.34,0.05,0.51c0.02,0.21,0.03,0.43,0.04,0.65c0.01,0.16,0.02,0.32,0.03,0.47
				c0.01,0.25,0.01,0.5,0,0.75c0,0.13,0,0.26,0,0.39c-0.01,0.38-0.03,0.76-0.05,1.14l-0.34,4.82l-11.17-0.78L451.56,218.15z"/>
			
				<rect x="452.3" y="259.86" transform="matrix(0.0699 -0.9976 0.9976 0.0699 157.3205 699.6491)" class="st10" width="3.13" height="11.2"/>
			
				<rect x="440.46" y="240.59" transform="matrix(0.0701 -0.9975 0.9975 0.0701 177.7176 683.0244)" class="st10" width="29.51" height="11.2"/>
			
				<rect x="455.13" y="221.46" transform="matrix(0.0699 -0.9976 0.9976 0.0699 198.1219 666.6142)" class="st10" width="2.85" height="11.2"/>
			
				<rect x="454.85" y="224.38" transform="matrix(0.07 -0.9975 0.9975 0.07 194.9899 669.1058)" class="st11" width="3" height="11.2"/>
			
				<rect x="452.58" y="256.8" transform="matrix(0.0699 -0.9976 0.9976 0.0699 160.571 697.0234)" class="st11" width="2.99" height="11.2"/>
		</g>
	</g>
	<g>
		<path class="st12" d="M292.7,237.37c29.32-7.94,39.28,4.82,39.28,4.82l-87.41,44.84L292.7,237.37z"/>
		<path class="st13" d="M331.98,242.2l-87.41,44.84l10.86,21.17c2.79-0.71,5.81,0.55,7.18,3.22c1.37,2.67,0.64,5.86-1.57,7.71
			l2.75,5.35l63.32-32.48c-1.81-4.2-0.12-9.14,4.01-11.26c4.13-2.12,9.13-0.61,11.49,3.31l8.58-4.4L331.98,242.2z M269.85,300.09
			c-4.54,2.33-10.1,0.53-12.43-4.01c-2.33-4.54-0.54-10.11,4-12.43c4.54-2.33,10.11-0.54,12.44,4
			C276.19,292.19,274.39,297.76,269.85,300.09z M297.52,299.04c-2.76,1.42-6.14,0.33-7.56-2.43c-1.42-2.76-0.33-6.14,2.43-7.56
			c2.76-1.42,6.14-0.33,7.56,2.43C301.37,294.25,300.28,297.63,297.52,299.04z M308.43,281.88c-3.56,1.83-7.94,0.42-9.76-3.14
			c-1.83-3.57-0.42-7.94,3.14-9.77c3.56-1.83,7.93-0.42,9.76,3.15C313.4,275.68,311.99,280.05,308.43,281.88z M331.63,269.97
			c-1.67,0.85-3.71,0.2-4.57-1.47c-0.85-1.67-0.19-3.71,1.47-4.57c1.67-0.85,3.71-0.2,4.57,1.47
			C333.96,267.07,333.3,269.12,331.63,269.97z"/>
		<path class="st12" d="M331.12,280.75c-4.13,2.12-5.83,7.06-4.01,11.26l15.51-7.95C340.25,280.14,335.25,278.63,331.12,280.75z"/>
		<path class="st12" d="M262.6,311.43c-1.37-2.67-4.38-3.94-7.18-3.22l5.61,10.94C263.25,317.29,263.98,314.1,262.6,311.43z"/>
		<path class="st12" d="M261.42,283.65c-4.54,2.33-6.33,7.89-4,12.43c2.33,4.54,7.89,6.33,12.43,4.01c4.54-2.33,6.34-7.9,4.01-12.44
			C271.53,283.11,265.96,281.32,261.42,283.65z"/>
		<path class="st12" d="M292.4,289.05c-2.76,1.41-3.85,4.8-2.43,7.56c1.41,2.76,4.8,3.85,7.56,2.43c2.76-1.42,3.85-4.8,2.43-7.56
			C298.54,288.72,295.15,287.64,292.4,289.05z"/>
		<path class="st12" d="M328.54,263.94c-1.66,0.86-2.32,2.9-1.47,4.57c0.86,1.67,2.9,2.32,4.57,1.47c1.67-0.85,2.33-2.9,1.47-4.57
			C332.25,263.74,330.2,263.09,328.54,263.94z"/>
		<path class="st12" d="M301.81,268.97c-3.57,1.83-4.97,6.2-3.14,9.77c1.83,3.56,6.2,4.97,9.76,3.14c3.56-1.83,4.97-6.2,3.15-9.76
			C309.75,268.55,305.37,267.15,301.81,268.97z"/>
	</g>
	<g>
		<path class="st14" d="M415.07,251.63c-0.16-9.22-10.14-15.32-23.11-14.1c-16.39,1.54-41.23,8.46-55.49,25.1
			c-11.57,13.51-15.91,27.61-7.16,37.17c14.78,16.13,28.68,1.83,37.43-8.68c6.58-7.9,19.95-22.4,29.48-26.26
			C405.43,261.13,415.22,260.4,415.07,251.63z"/>
		<path class="st15" d="M401.43,243.5c-18.65,1.76-46.93,9.63-63.17,28.57c-6.29,7.34-10.69,14.83-12.5,21.84
			c-3.35-9.02,1.27-20.42,10.71-31.42c14.26-16.64,39.11-23.56,55.5-25.1c9.04-0.85,16.63,1.86,20.45,6.7
			C409.1,243.36,405.39,243.13,401.43,243.5z"/>
		<path class="st16" d="M421.02,247.41l14.22,0.31l-0.39,3.6l-16.28-0.03c0,0,6.36,3.07,6.16,8.48c-0.08,2.17-7.73-3.98-7.73-3.98
			s-0.05,6.62-9.2,9.96c-3.3,1.21,4.71-11.58,4.71-11.58s-15.65-0.98-13.52-3.04c2.32-2.25,14.18-5.21,14.18-5.21
			s-12.91-9.78-12.53-10.04c8.35-5.71,15.51,7.63,15.51,7.63s-2.75-9.95-1.92-9.66C424.47,237.45,421.02,247.41,421.02,247.41z"/>
		<path class="st17" d="M355.39,292.84c-5.64,5.46-12.95,7.75-19.08,6.61c4.79,4.01,12.87,2.98,18.6-2.57
			c3.13-3.04,4.93-6.81,5.3-10.43C359,288.73,357.4,290.9,355.39,292.84z"/>
		<path class="st18" d="M415.37,245.31c-0.52-0.85-0.92-1.58-1.05-1.77c-6.22-9.18-12.82-8.47-11.91-8.6
			c0.32-0.04,6.35-3.41,14.55,8.01c0.87,1.21,1.72,2.66,1.88,3.87l16.39,0.91l-0.13,1.19l-15.79-0.52c0.41,1.22,0.01,3.11-0.52,4.71
			c-4.37,13.37-11.33,12.59-11.65,12.64c-0.9,0.15,5.79-1.77,8.95-12.4c0.08-0.27,0.32-1.49,0.66-2.75
			c-0.96,0.48-1.93,0.81-2.23,0.88c-3.79,0.89-16.05,0.41-15.54-0.35c0.18-0.27,7.37-4.76,14.13-6.07
			C413.8,244.92,414.59,245.04,415.37,245.31z"/>
	</g>
	<g>
		<path class="st19" d="M486.33,140.86c0,0,6.79,57.54-0.28,74.87c-1.64,4.01-12.07,12.41-12.07,12.41s-2.82-31.67-1.45-42.11
			C474.07,174.33,486.33,140.86,486.33,140.86z"/>
		<path class="st20" d="M502.22,122.36c0,0-19.97,54.39-17.11,72.89c0.66,4.28,8.86,14.88,8.86,14.88s8.59-30.41,11.18-40.62
			C509.84,151.08,502.22,122.36,502.22,122.36z"/>
		<path class="st21" d="M499.03,215.7c0,0,4.4-6.92,7.55-21.1c1.54-6.95,6.5-27.71,6.5-27.71s-16.49,20.2-20.83,15.39
			c-13.47-14.95-23.85-23-23.85-23s0.39,23.11-0.38,30.76c-0.93,9.32-6.99,36.82-6.99,36.82l16.88,22.81L499.03,215.7z"/>
		<path class="st22" d="M469.98,198.88c-5.81,24.76-4.1,46.34,3.81,48.2c7.92,1.86,19.04-16.71,24.85-41.47
			c5.81-24.76,4.1-46.34-3.81-48.2C486.92,155.55,475.79,174.12,469.98,198.88z"/>
		<path class="st23" d="M478.12,188.41c-3.98,16.96-3.2,31.65,1.74,32.81c4.94,1.16,12.17-11.65,16.15-28.61
			c3.98-16.96,3.2-31.65-1.74-32.81C489.33,158.64,482.1,171.45,478.12,188.41z"/>
		<path class="st24" d="M456.38,203.37c0,0,4.64,7.15,4.31,16.56c-0.26,7.45-9.29,26.82-7.05,33.93c1.85,5.88,3.69,9.78,11.63,11.64
			c2.25,0.53,12.2-2.66,12.2-2.66s-4.04-14.67-5.21-20.83c-1.26-6.61,1.28-19.11-4.44-30.22
			C464.03,204.42,456.38,203.37,456.38,203.37z"/>
		<polygon class="st25" points="461.71,272.5 471.28,272.99 474.37,259.81 465.2,257.65 		"/>
		<g>
			<path class="st17" d="M492.46,163.32c1.23-1.28,4.1,2.32,4.19,5.98c0.08,3.48-1.14,7.69-3.15,6.44
				c-1.35-0.83-0.15-3.55-0.05-4.86C493.69,167.49,490.75,165.1,492.46,163.32z"/>
		</g>
		<path class="st26" d="M511.01,211.91c0,0-8.48,5.49-12.92,14.86c-3.67,7.75-6.03,28.47-11.97,34.65
			c-4.91,5.1-8.81,8.18-17.94,6.04c-8.81-2.07-10.6-5.84-10.6-5.84s12.18-11.36,16.54-17.1c4.69-6.17,7.63-19.69,20.79-29.78
			C502.48,208.92,511.01,211.91,511.01,211.91z"/>
		<path class="st22" d="M486.55,200.86c-0.32,1.36,0.52,2.72,1.88,3.04l4.59,1.08c1.36,0.32,2.71-0.53,3.03-1.88l0,0
			c0.32-1.36-0.52-2.71-1.88-3.04l-4.59-1.08C488.23,198.66,486.87,199.5,486.55,200.86L486.55,200.86z"/>
		<path class="st22" d="M480.14,206.79c-0.32,1.36,0.52,2.72,1.88,3.03l4.59,1.08c1.36,0.32,2.72-0.52,3.03-1.88l0,0
			c0.32-1.36-0.52-2.72-1.88-3.04l-4.59-1.08C481.82,204.59,480.46,205.43,480.14,206.79L480.14,206.79z"/>
		<path class="st22" d="M479.03,193.91c-0.32,1.36,0.53,2.72,1.88,3.04l4.59,1.08c1.36,0.32,2.72-0.52,3.04-1.88l0,0
			c0.32-1.36-0.52-2.72-1.88-3.04l-4.59-1.08C480.71,191.71,479.35,192.55,479.03,193.91L479.03,193.91z"/>
		<path class="st22" d="M475.64,186.99c-0.32,1.36,0.52,2.72,1.88,3.04l4.59,1.08c1.36,0.32,2.72-0.52,3.03-1.88l0,0
			c0.32-1.36-0.52-2.71-1.88-3.03l-4.59-1.08C477.32,184.79,475.96,185.63,475.64,186.99L475.64,186.99z"/>
		<path class="st22" d="M491.12,186.28c-0.32,1.36,0.52,2.72,1.88,3.04l4.59,1.08c1.36,0.32,2.72-0.52,3.04-1.88l0,0
			c0.32-1.36-0.52-2.72-1.88-3.04l-4.59-1.08C492.8,184.07,491.44,184.92,491.12,186.28L491.12,186.28z"/>
		<path class="st22" d="M481.73,169.31c-0.32,1.36,0.52,2.72,1.88,3.04l4.59,1.08c1.36,0.32,2.72-0.52,3.03-1.88l0,0
			c0.32-1.36-0.52-2.72-1.88-3.04l-4.59-1.08C483.41,167.11,482.05,167.95,481.73,169.31L481.73,169.31z"/>
	</g>
	<g>
		
			<rect x="415.25" y="276.04" transform="matrix(8.440044e-03 -1 1 8.440044e-03 135.6427 695.2342)" class="st27" width="6.27" height="6.36"/>
		
			<rect x="384.19" y="268.92" transform="matrix(8.493787e-03 -1 1 8.493787e-03 105.0869 663.8909)" class="st27" width="6.27" height="20.06"/>
		<polygon class="st13" points="425.1,267.17 425.02,276.14 421.59,276.11 415.23,276.06 415.26,273.12 415.31,267.09 		"/>
		<polygon class="st13" points="397.46,266.94 397.4,272.97 397.38,275.91 377.32,275.74 373.89,275.71 373.96,266.74 		"/>
		<path class="st28" d="M396.46,382.65l-23.48-0.2c-4.22-0.04-7.61-3.49-7.58-7.71l0.19-21.91l31.12,0.27L396.46,382.65z"/>
		<path class="st28" d="M431.98,353.39l-0.19,21.91c-0.04,4.22-3.49,7.61-7.71,7.58l-9.77-0.08l0.25-29.55L431.98,353.39z"/>
		<path class="st28" d="M421.54,282.38l3.41,0.03c4.22,0.04,7.61,3.49,7.58,7.71l-0.17,19.6l-17.42-0.15l0.08-9.05l0.16-18.19
			L421.54,282.38z"/>
		<path class="st28" d="M373.85,281.97l3.41,0.03l20.06,0.17l-0.16,18.2l-0.08,9.05l-31.12-0.27l0.17-19.6
			C366.18,285.33,369.63,281.94,373.85,281.97z"/>
		
			<rect x="421.09" y="342.4" transform="matrix(8.607154e-03 -1 1 8.607154e-03 68.5543 771.3687)" class="st0" width="4.42" height="17.42"/>
		
			<rect x="421.46" y="303.1" transform="matrix(8.578249e-03 -1 1 8.578249e-03 108.199 732.7534)" class="st0" width="4.34" height="17.42"/>
		
			<rect x="379.34" y="295.89" transform="matrix(8.596905e-03 -1 1 8.596905e-03 66.7964 690.2721)" class="st0" width="4.34" height="31.12"/>
		
			<rect x="378.97" y="335.19" transform="matrix(8.599428e-03 -1 1 8.599428e-03 27.1635 728.8985)" class="st0" width="4.42" height="31.12"/>
		
			<rect x="406" y="322.73" transform="matrix(8.578249e-03 -1 1 8.578249e-03 88.4023 752.0471)" class="st13" width="34.92" height="17.42"/>
		
			<rect x="363.88" y="315.52" transform="matrix(8.519478e-03 -1 1 8.519478e-03 47.0291 709.593)" class="st13" width="34.92" height="31.12"/>
		
			<rect x="403.14" y="270.19" transform="matrix(8.642676e-03 -1 1 8.642676e-03 123.66 682.9669)" class="st29" width="6.27" height="17.85"/>
		<polygon class="st30" points="415.31,267.09 415.26,273.12 415.23,276.06 397.38,275.91 397.4,272.97 397.46,266.94 		"/>
		
			<rect x="390.74" y="359.02" transform="matrix(8.573907e-03 -1 1 8.573907e-03 34.1085 770.292)" class="st31" width="29.55" height="17.85"/>
		<polygon class="st31" points="415.18,282.33 415.02,300.52 414.94,309.57 397.09,309.41 397.17,300.37 397.32,282.17 		"/>
		
			<rect x="403.83" y="302.73" transform="matrix(8.535783e-03 -1 1 8.535783e-03 90.8847 714.983)" class="st17" width="4.34" height="17.85"/>
		
			<rect x="403.45" y="342.03" transform="matrix(8.537026e-03 -1 1 8.537026e-03 51.2523 753.6112)" class="st17" width="4.42" height="17.85"/>
		
			<rect x="388.37" y="322.36" transform="matrix(8.587438e-03 -1 1 8.587438e-03 71.0674 734.2609)" class="st30" width="34.92" height="17.85"/>
		
			<rect x="398.23" y="361.68" transform="matrix(8.582105e-03 -1 1 8.582105e-03 21.3455 777.675)" class="st28" width="9.26" height="32.78"/>
		
			<rect x="399.61" y="269.88" transform="matrix(8.581948e-03 -1 1 8.581948e-03 113.9257 687.4444)" class="st28" width="8.08" height="32.78"/>
	</g>
	<g>
		<path class="st32" d="M291.8,310.13c-17.25,18.95-16.78,47.48,1.06,63.72c17.84,16.25,46.28,14.06,63.54-4.89
			c17.26-18.94,16.78-47.47-1.06-63.72C337.5,288.99,309.05,291.18,291.8,310.13z"/>
		<path class="st33" d="M295.4,305.93c0.73-4.54,7.98-12.25,12.37-13.59c1.81-0.55,5.46,1.99,7.34,1.79
			c2.42-0.26,6.38-4.77,8.76-4.25c2.6,0.57,4.55,6.76,6.79,8.21c1.69,1.11,6.89,0.38,7.78,2.2c0.85,1.73-3.34,5.3-2.87,7.17
			c0.77,3,8.95,4.84,9.54,7.87c0.42,2.13-4.1,5.48-4.12,7.66c-0.02,2.17,4.66,5.64,3.98,7.71c-1.75,5.38-20.22,10.11-20.22,10.11
			l-19.58-12.95C305.17,327.87,294.44,311.86,295.4,305.93z"/>
		<path class="st25" d="M368.93,354.86c3.69-2.74,7.18-12.73,6.34-17.25c-0.34-1.86-4.28-3.92-4.97-5.68
			c-0.88-2.27,1.28-7.86-0.27-9.73c-1.7-2.04-8.1-0.92-10.42-2.22c-1.76-0.99-3.52-5.93-5.54-5.88c-1.93,0.04-3.16,5.41-5.04,5.85
			c-3.01,0.7-8.42-5.7-11.39-4.83c-2.09,0.61-2.97,6.17-4.89,7.19c-1.92,1.02-7.16-1.52-8.68,0.02
			c-3.96,4.03-20.45,37.39-20.45,37.39l41.34-3.39C344.96,356.32,364.11,358.44,368.93,354.86z"/>
		<path class="st34" d="M298.27,386c7.28,2.64,25.51-9.66,25.63-17.41c0.06-3.51-7.15-8.32-7.59-11.8
			c-0.65-5.15,8.29-14.82,6.54-19.71c-1.16-3.24-10.06-4.29-11.65-7.35c-1.47-2.85,2.42-10.13,0.68-12.83
			c-1.14-1.76-6.67-1.29-7.82-3.05c-1.38-2.12,2-8.13,0.44-10.12c-1.26-1.6-6.32-0.4-8-1.55c-2.15-1.47-3-9.36-5.55-8.83
			c-3.89,0.8-0.9,12.04-2.46,15.69c-1.43,3.33-6.51,8.73-8.86,11.49C255.75,348.57,282.28,380.19,298.27,386z"/>
		<path class="st26" d="M301.97,384.06c-6.08-4.8-5.19-26.78,1.34-30.96c2.95-1.89,10.84,1.71,14.03,0.25
			c4.72-2.16,8.25-14.85,13.33-15.93c3.37-0.72,8.94,6.31,12.37,6.05c3.2-0.25,7.34-7.38,10.56-7.32c2.09,0.04,4.6,5,6.7,5.05
			c2.53,0.06,5.86-5.98,8.38-5.69c2.03,0.23,3.67,5.17,5.53,6c2.39,1.05,9.54-2.37,10.43,0.08c1.36,3.73-9.77,7.09-12.05,10.34
			c-2.08,2.97-4.01,10.12-5.12,13.58C356.17,400.56,315.32,394.61,301.97,384.06z"/>
		<g>
			<path class="st17" d="M357.49,360.86c3.72,0.67,0.76,10.01-5.62,14.5c-6.07,4.27-14.97,7.1-15.16,2.05
				c-0.12-3.38,6.12-4.48,8.54-5.85C351.56,367.97,352.3,359.93,357.49,360.86z"/>
		</g>
	</g>
	<g>
		
			<rect x="438.09" y="284.38" transform="matrix(0.9924 -0.1231 0.1231 0.9924 -37.7562 59.6322)" class="st13" width="50.91" height="101.77"/>
		
			<rect x="430.85" y="269.02" transform="matrix(0.9924 -0.1232 0.1232 0.9924 -30.6322 58.3069)" class="st35" width="50.91" height="15.8"/>
		<path class="st13" d="M430.1,272.21c-0.57-5.68,3.48-10.8,9.17-11.51l29.59-3.67c5.69-0.71,10.86,3.27,11.7,8.92L430.1,272.21z"/>
		<path class="st3" d="M462.96,269.24l0.76,6.11l0,0c0.3,2.4-2.82,4.76-6.96,5.28c-4.14,0.51-7.74-1.02-8.03-3.41l0,0l-0.76-6.11
			L462.96,269.24z"/>
		<path class="st4" d="M447.97,271.1c0.3,2.4,3.89,3.93,8.03,3.41c4.14-0.52,7.26-2.88,6.96-5.27c-0.3-2.4-3.89-3.93-8.03-3.41
			C450.79,266.34,447.68,268.7,447.97,271.1z"/>
		
			<rect x="441.24" y="298.91" transform="matrix(0.9924 -0.1232 0.1232 0.9924 -34.2408 59.0054)" class="st17" width="37.44" height="14.88"/>
		
			<rect x="450.56" y="319.26" transform="matrix(0.9924 -0.1231 0.1231 0.9924 -36.0398 59.2833)" class="st17" width="22.51" height="4.18"/>
		
			<rect x="446.53" y="329.18" transform="matrix(0.9924 -0.1232 0.1232 0.9924 -37.2718 59.5471)" class="st17" width="33.04" height="4.18"/>
		<path class="st35" d="M450.19,360.47c1.11,8.97,9.28,15.33,18.25,14.22c8.97-1.11,15.33-9.28,14.22-18.25
			c-1.11-8.97-9.28-15.33-18.25-14.22C455.44,343.33,449.08,351.5,450.19,360.47z"/>
	</g>
	<g>
		<path class="st36" d="M591.9,104.3c-12.13-4.92-27.87,2.17-43.87,17.77l15.8,6.42c3.66,1.49,5.42,5.65,3.93,9.31
			c-1.49,3.66-5.65,5.42-9.31,3.94l-20.76-8.42c-3.04,3.64-6.07,7.57-9.06,11.75l24.44,9.92c3.66,1.49,5.42,5.65,3.93,9.31
			c-1.48,3.66-5.65,5.42-9.31,3.93l-27.15-11.02c-2.48,3.99-4.92,8.15-7.3,12.47l29.07,11.81c3.66,1.48,5.42,5.65,3.94,9.3
			c-1.49,3.67-5.66,5.43-9.32,3.94l-30.29-12.3c-2.06,4.22-4.07,8.55-5.99,13l30.91,12.54c3.65,1.48,5.42,5.65,3.93,9.31
			c-1.48,3.66-5.65,5.43-9.31,3.94l-30.91-12.54c-1.73,4.53-3.31,9.03-4.77,13.49l30.3,12.3c3.66,1.48,5.42,5.66,3.94,9.31
			c-1.48,3.66-5.65,5.42-9.31,3.93l-29.07-11.8c-1.31,4.75-2.46,9.44-3.46,14.04l27.14,11.01c3.66,1.49,5.42,5.66,3.94,9.31
			c-1.48,3.66-5.66,5.42-9.31,3.94l-24.44-9.92c-0.78,5.09-1.33,10-1.69,14.74l20.74,8.43c3.66,1.48,5.43,5.65,3.94,9.31
			c-1.48,3.66-5.65,5.42-9.31,3.93l-15.8-6.41c0.6,22.33,6.95,38.39,19.08,43.32c0.32,0.13,0.65,0.21,0.98,0.33
			c0.28,0.15,0.58,0.28,0.88,0.4c6.85,2.59,14.55-0.73,17.31-7.56l9.84-24.24l64.85-159.77l9.84-24.24
			c2.77-6.82-0.43-14.57-7.15-17.48c-0.3-0.11-0.61-0.23-0.92-0.32C592.52,104.6,592.23,104.44,591.9,104.3z"/>
		<path class="st37" d="M535.5,217.29c1.49-3.66-0.28-7.83-3.93-9.31l-30.91-12.54c-0.94,2.18-1.87,4.36-2.77,6.58
			c-0.9,2.22-1.77,4.45-2.61,6.67l30.91,12.54C529.85,222.71,534.01,220.95,535.5,217.29z"/>
		<path class="st37" d="M524.74,243.79c1.48-3.66-0.28-7.83-3.94-9.31l-30.3-12.3c-1.52,4.64-2.9,9.22-4.14,13.75l29.07,11.8
			C519.09,249.21,523.26,247.44,524.74,243.79z"/>
		<path class="st37" d="M557.01,164.29c1.48-3.66-0.28-7.83-3.93-9.31l-24.44-9.92c-2.74,3.85-5.44,7.9-8.09,12.15l27.15,11.02
			C551.36,169.71,555.52,167.96,557.01,164.29z"/>
		<path class="st37" d="M546.26,190.79c1.48-3.65-0.28-7.82-3.94-9.3l-29.07-11.81c-2.26,4.11-4.47,8.37-6.6,12.75l30.29,12.3
			C540.6,196.22,544.77,194.45,546.26,190.79z"/>
		<path class="st37" d="M567.77,137.79c1.48-3.66-0.28-7.82-3.93-9.31l-15.8-6.42c-3.44,3.36-6.9,7.13-10.33,11.24l20.76,8.42
			C562.11,143.22,566.28,141.45,567.77,137.79z"/>
		<path class="st37" d="M513.99,270.29c1.48-3.66-0.28-7.82-3.94-9.31l-27.14-11.01c-1.07,4.89-1.95,9.68-2.67,14.34l24.44,9.92
			C508.33,275.71,512.5,273.94,513.99,270.29z"/>
		<path class="st37" d="M503.23,296.79c1.49-3.66-0.27-7.83-3.94-9.31l-20.74-8.43c-0.41,5.34-0.55,10.46-0.42,15.26l15.8,6.41
			C497.58,302.21,501.75,300.45,503.23,296.79z"/>
	</g>
	<g>
		<path class="st4" d="M663.2,143l1.2-5.72l20.78,4.35l-1.2,5.72c0,0,8.62,31.13,7.23,37.8l-0.3,1.45l-2.44,11.62l-15.42,73.65
			c-0.42,2-2.38,3.28-4.38,2.86l-42.55-8.91c-2-0.42-3.28-2.38-2.86-4.38l15.43-73.65l2.43-11.62l0.31-1.45
			C642.81,168.06,663.2,143,663.2,143z"/>
		<g>
			<g>
				<path class="st38" d="M669.03,125.08l-1.97,9.42l2.42,0.51l2.04-9.71l2.42,0.51l-2.03,9.71l2.42,0.51l2.03-9.71l2.42,0.51
					l-2.03,9.71l2.42,0.51l2.03-9.71l2.42,0.51l-2.04,9.71l2.42,0.51l1.96-9.38c1.82,1.16,2.83,3.35,2.36,5.59l-0.96,4.56
					l-23.84-4.99l0.96-4.56C664.95,126.98,666.83,125.36,669.03,125.08z"/>
				<path class="st39" d="M681.57,137.54l2.04-9.71l0.59,0.12c0.64,0.13,1.23,0.39,1.76,0.72l-1.96,9.38L681.57,137.54z"/>
				
					<rect x="674" y="130.69" transform="matrix(0.205 -0.9788 0.9788 0.205 410.6162 769.4096)" class="st39" width="9.92" height="2.47"/>
				
					<rect x="669.16" y="129.68" transform="matrix(0.2049 -0.9788 0.9788 0.2049 407.8672 763.9125)" class="st39" width="9.92" height="2.47"/>
				<path class="st39" d="M667.05,134.5l1.97-9.42c0.57-0.07,1.16-0.06,1.76,0.07l0.73,0.15l-2.04,9.71L667.05,134.5z"/>
			</g>
			
				<rect x="673.18" y="125.3" transform="matrix(0.205 -0.9788 0.9788 0.205 402.2157 770.1595)" class="st39" width="4.03" height="24.36"/>
		</g>
		<path class="st17" d="M681.91,184.3l0.28-1.37c1.26-5.99-6.07-32.93-6.75-35.38l1-4.76l4.2,0.88l-0.59,2.81
			c0,0,8.56,30.88,7.17,37.49l-0.3,1.44l-2.42,11.53l-14.52,69.35l-5.1-1.07c0.09-0.22,0.17-0.45,0.22-0.69l14.51-69.3L681.91,184.3
			z"/>
		
			<rect x="632.06" y="191.03" transform="matrix(0.205 -0.9788 0.9788 0.205 311.7759 816.7647)" class="st0" width="53.21" height="50.88"/>
		<path class="st3" d="M661.85,139.74c-0.14,0.66,0.28,1.3,0.94,1.44l22.29,4.67c0.66,0.14,1.31-0.28,1.45-0.94l0,0
			c0.14-0.66-0.29-1.3-0.94-1.44l-22.29-4.67C662.63,138.65,661.98,139.08,661.85,139.74L661.85,139.74z"/>
	</g>
	<g>
		<g>
			<path class="st13" d="M520.1,266.84l-0.44-0.6c0,0,14.65-26.77,52.7-30.91c33.7-3.67,56.53,21.81,56.53,21.81l-0.79,1.59
				c-7.29-5.29-27.97-18.04-54.84-15.13C545.57,246.63,527.76,259.86,520.1,266.84z"/>
			<path class="st40" d="M574.19,252.19c-23.73,2.58-42.43,10.42-53.14,15.96l-0.96-1.31c7.65-6.98,25.47-20.22,53.16-23.23
				c26.87-2.92,47.55,9.83,54.84,15.13l-0.77,1.56C617.86,256.22,598.1,249.59,574.19,252.19z"/>
			<path class="st12" d="M575.63,257.24c-20.54,2.23-52.7,13.48-52.7,13.48l-1.87-2.57c10.71-5.54,29.41-13.38,53.14-15.96
				c23.91-2.6,43.66,4.03,53.14,8.11l-0.56,1.12C626.78,261.42,597.32,254.87,575.63,257.24z"/>
			<path class="st41" d="M519.61,266.23l3.54,4.41c-0.38,0.24-1.08,0.58-1.55,0.63c-1.61,0.17-3.05-0.93-3.22-2.47
				C518.27,267.77,518.78,266.8,519.61,266.23z"/>
			<polygon class="st13" points="626.52,259.94 629.59,261.5 630.49,258.91 627.44,257.71 			"/>
		</g>
		<g>
			<path class="st13" d="M523.05,234.59l-0.25-0.7c0,0,21.75-21.41,59.37-14.4c33.32,6.21,47.84,37.18,47.84,37.18l-1.21,1.3
				c-5.46-7.17-21.58-25.34-48.15-30.29C553.27,222.57,532.39,230.11,523.05,234.59z"/>
			<path class="st40" d="M579.07,236.16c-23.47-4.37-43.63-2.25-55.49-0.03l-0.54-1.53c9.35-4.48,30.22-12.02,57.6-6.92
				c26.57,4.95,42.69,23.12,48.15,30.29l-1.18,1.27C619.72,252.6,602.71,240.55,579.07,236.16z"/>
			<path class="st12" d="M578.98,241.4c-20.31-3.78-54.35-2.28-54.35-2.28l-1.05-2.99c11.86-2.22,32.01-4.34,55.49,0.03
				c23.64,4.4,40.65,16.45,48.55,23.08l-0.85,0.91C626.76,260.15,600.44,245.39,578.98,241.4z"/>
			<path class="st41" d="M522.76,233.86l2.12,5.25c-0.44,0.12-1.21,0.24-1.67,0.16c-1.59-0.3-2.65-1.77-2.37-3.29
				C521.03,234.95,521.8,234.17,522.76,233.86z"/>
			<polygon class="st13" points="627.08,259.13 629.56,261.52 631.18,259.29 628.6,257.26 			"/>
		</g>
		<g>
			<path class="st13" d="M536.12,203.98l-0.04-0.74c0,0,26.93-14.35,61.02,3.05c30.19,15.41,35.31,49.24,35.31,49.24l-1.54,0.9
				c-3.2-8.43-13.5-30.42-37.57-42.72C568.51,201.03,546.36,202.33,536.12,203.98z"/>
			<path class="st40" d="M589.4,221.38c-21.26-10.85-41.19-14.55-53.19-15.79l-0.08-1.62c10.24-1.64,32.39-2.94,57.2,9.73
				c24.07,12.3,34.37,34.29,37.57,42.72l-1.5,0.88C623.7,248.69,610.81,232.32,589.4,221.38z"/>
			<path class="st12" d="M587.82,226.38c-18.4-9.4-51.46-17.62-51.46-17.62l-0.16-3.17c12,1.24,31.93,4.93,53.19,15.79
				c21.42,10.93,34.3,27.31,39.99,35.92l-1.08,0.63C628.31,257.93,607.26,236.3,587.82,226.38z"/>
			<path class="st41" d="M536.06,203.2l0.54,5.63c-0.45-0.01-1.22-0.11-1.65-0.32c-1.44-0.74-2.04-2.45-1.34-3.83
				C534.09,203.74,535.04,203.22,536.06,203.2z"/>
			<polygon class="st13" points="628.91,257.05 630.61,260.04 632.79,258.37 630.89,255.68 			"/>
		</g>
		<g>
			<path class="st13" d="M559.62,174.98l0.21-0.71c0,0,30.17-4.56,56.51,23.21c23.33,24.59,16.89,58.19,16.89,58.19l-1.75,0.34
				c-0.21-9.01-2.59-33.18-21.18-52.8C591.14,183,569.82,176.84,559.62,174.98z"/>
			<path class="st40" d="M604.05,209.15c-16.43-17.33-33.99-27.45-44.89-32.62l0.46-1.55c10.19,1.86,31.52,8.02,50.69,28.23
				c18.59,19.62,20.98,43.79,21.18,52.8l-1.71,0.33C627.29,246.33,620.61,226.59,604.05,209.15z"/>
			<path class="st12" d="M600.9,213.34c-14.22-14.99-42.65-33.76-42.65-33.76l0.91-3.04c10.9,5.17,28.45,15.29,44.89,32.62
				c16.55,17.45,23.24,37.18,25.74,47.19l-1.23,0.24C628.56,256.58,615.92,229.17,600.9,213.34z"/>
			<path class="st41" d="M559.82,174.23l-1.36,5.49c-0.42-0.16-1.12-0.51-1.44-0.85c-1.12-1.17-1.11-2.99,0.01-4.05
				C557.78,174.08,558.86,173.91,559.82,174.23z"/>
			<polygon class="st13" points="629.42,255.94 630.03,259.33 632.64,258.48 631.75,255.32 			"/>
		</g>
		<g>
			<path class="st13" d="M598.36,152.15l0.48-0.57c0,0,29.44,8.04,42.3,44.09c11.39,31.93-8.09,60.04-8.09,60.04l-1.73-0.4
				c3.46-8.32,11.06-31.4,1.98-56.86C623.94,172.23,606.93,157.98,598.36,152.15z"/>
			<path class="st40" d="M625.17,201.37c-8.02-22.49-19.98-38.85-27.86-47.99l1.05-1.23c8.57,5.83,25.58,20.08,34.93,46.32
				c9.07,25.46,1.47,48.53-1.98,56.86l-1.69-0.39C631.38,244.78,633.25,224.02,625.17,201.37z"/>
			<path class="st12" d="M620.59,203.93c-6.94-19.46-25.35-48.13-25.35-48.13l2.06-2.42c7.88,9.13,19.84,25.5,27.86,47.99
				c8.08,22.65,6.21,43.41,4.45,53.57l-1.22-0.28C628.4,254.66,627.93,224.48,620.59,203.93z"/>
			<path class="st41" d="M598.84,151.54l-3.47,4.47c-0.32-0.31-0.82-0.92-0.98-1.37c-0.55-1.53,0.2-3.18,1.65-3.7
				C597.04,150.59,598.09,150.86,598.84,151.54z"/>
			<polygon class="st13" points="629.44,254.42 628.62,257.77 631.36,258.05 631.82,254.79 			"/>
		</g>
	</g>
	<g>
		<g>
			<path class="st42" d="M617.74,366.27c4-2.46,6.19-5.5,8.52-9.76c2.42-4.43,1.86-4.85-0.01-9.26c-1.7-4.02-1.7-6.27,1.17-9.64
				c5.91-6.94,10-13.06,4.33-21.09c-3.76-5.32-5.35-9.64-4.28-16.52c0.56-3.56,2.25-7.22,3.64-10.52c0.68-1.64,2.77-4.27,2.44-6.13
				c-0.53-3.03-7.23-5.83-9.8-7.21c-4.36-2.33-7.81-3.91-8.62-9.08c-0.69-4.4,0.31-10.02,0.1-15.07
				c23.3,12.22,39.21,36.68,39.21,64.89c0,33.13-21.93,61.1-52.01,70.12c1.49-4.78,2.41-10.01,4.43-12.79
				C609.68,370.32,613.89,368.63,617.74,366.27z"/>
			<path class="st42" d="M577.37,253.93c-0.95,1.35-3.31,3.39-3.4,5.03c-0.13,2.48,1.56,2.46,2.59,4.41
				c2.55,4.83-3.57,7.29-4.52,12.16c-0.86,4.45,4.45,8.12,4.51,12.37c0.07,5.16-7.19,6.53-9.38,10.5
				c-3.39,6.16,4.78,12.92,5.27,19.08c0.48,6.08-4.67,9.21-7.54,13.58c-5.21,7.93,7.95,9.81,9.38,16.8c1.11,5.42-6,9.26-5,15.17
				c0.94,5.49,9.26,9.16,7.57,15.2c-0.88,3.13-5.05,4.18-6.1,7.22c-0.09,0.26-0.13,0.54-0.18,0.81c-0.55-0.36-1.1-0.74-1.66-1.12
				c-3.46-2.38-7.82-3.19-11.1-5.51c-3.88-2.74-5.03-6.3-2.5-10.3c2.82-4.45,2.56-5.86-1.52-9.86c-3.95-3.88-9.15-7.76-10.48-13.26
				c-1.47-6.06,2.46-10.94,3.36-16.62c0.81-5.17-2.52-10.97-4.72-15.41c-2.5-5.03-2.71-8.37-0.07-13.47
				c1.96-3.79,4.51-5.36,3.05-9.67c-1.25-3.7-3.82-6.67-1.88-10.93c1.33-2.91,4.48-4.77,7.18-6.29c5.97-3.35,5.7-7.76,9.48-12.99
				c3.01-4.16,0.68-7.27,4.21-11.26c1.7-1.92,8.25-2.91,10.85-4.23c0.97-0.49,1.96-0.95,2.95-1.4c-0.04,0.25-0.08,0.49-0.1,0.74
				C577.38,249.32,580.5,249.46,577.37,253.93z"/>
			<path class="st42" d="M591.12,372.11c-2.5-2.59-6.33-3.97-3.32-7.04c11.45-11.64,4.25-19.22,1.52-22.52
				c-2.05-2.46-6.68-4.96-7.66-8.15c-2.38-7.77,10.4-11.78,9.19-20.14c-1.14-7.87-10.87-13.76-5.51-20.9
				c5.14-6.85,6.26-10.25,1.46-17.56c-1.76-2.69-2.52-4.35-0.82-7.42c1.05-1.9,4.64-3.7,4.87-5.77c0.32-2.88-4.01-4.57-4.42-6.94
				c-0.61-3.54,3.15-4.37,4.47-6.98c0.19,0.13,0.37,0.25,0.56,0.38c3.46,2.38,7.82,3.19,11.1,5.51c3.88,2.74,5.03,6.3,2.5,10.3
				c-2.82,4.45-2.56,5.86,1.52,9.86c3.95,3.88,9.15,7.76,10.48,13.26c1.47,6.06-2.47,10.94-3.36,16.62
				c-0.81,5.17,2.52,10.97,4.72,15.41c2.5,5.04,2.71,8.37,0.07,13.47c-1.96,3.79-4.51,5.36-3.05,9.67c1.25,3.7,3.82,6.67,1.88,10.93
				c-1.33,2.91-4.49,4.77-7.18,6.28c-5.97,3.35-5.7,7.76-9.48,12.99c-3,4.16-0.68,7.27-4.21,11.26c-1.7,1.92-8.25,2.91-10.85,4.23
				c-0.69,0.35-1.39,0.69-2.1,1.02c0.92-1.37,2.08-2.74,3.56-4.34C591.08,381.23,596.46,377.64,591.12,372.11z"/>
			<path class="st42" d="M508.63,316.87c0-32.08,20.57-59.32,49.18-69.2c-1.41,4.66-2.34,9.66-4.3,12.35
				c-2.82,3.88-7.03,5.58-10.88,7.93c-4,2.46-6.19,5.5-8.52,9.76c-2.42,4.43-1.86,4.85,0.01,9.27c1.7,4.02,1.7,6.27-1.17,9.64
				c-5.91,6.94-10,13.06-4.33,21.1c3.75,5.32,5.35,9.63,4.28,16.52c-0.56,3.57-2.25,7.22-3.64,10.52c-0.69,1.64-2.77,4.27-2.44,6.13
				c0.53,3.03,7.23,5.84,9.8,7.21c4.37,2.33,7.81,3.91,8.62,9.08c0.6,3.83-0.08,8.59-0.13,13.08
				C523.31,367.61,508.63,343.97,508.63,316.87z"/>
			<path class="st43" d="M529.26,344.76c-0.69,1.64-2.77,4.27-2.44,6.13c0.53,3.03,7.23,5.84,9.8,7.21
				c4.37,2.33,7.81,3.91,8.62,9.08c0.6,3.83-0.08,8.59-0.13,13.08c7.76,4.5,16.42,7.62,25.65,9c1.49,0.22,3,0.39,4.52,0.52
				c2.06,0.17,4.15,0.29,6.25,0.29c0.57,0,1.13-0.03,1.69-0.04c0.06,0,0.13,0,0.19-0.01c6.59-0.17,12.97-1.21,19.01-3.02
				c1.49-4.78,2.41-10.01,4.43-12.79c2.82-3.88,7.03-5.58,10.88-7.93c4-2.46,6.19-5.5,8.52-9.76c2.42-4.43,1.86-4.85-0.01-9.26
				c-1.7-4.02-1.7-6.27,1.17-9.64c5.91-6.94,10-13.06,4.33-21.09c-3.76-5.32-5.35-9.64-4.28-16.52c0.56-3.56,2.25-7.22,3.64-10.52
				c0.68-1.64,2.77-4.27,2.44-6.13c-0.53-3.03-7.23-5.83-9.8-7.21c-4.36-2.33-7.81-3.91-8.62-9.08c-0.69-4.4,0.31-10.02,0.1-15.07
				c-7.6-3.99-15.99-6.66-24.88-7.74c-1.76-0.21-3.54-0.38-5.34-0.47c-1.16-0.05-2.32-0.09-3.49-0.09c-1.15,0-2.29,0.04-3.42,0.09
				c-0.12,0.01-0.23,0-0.35,0.01c-6.95,0.35-13.64,1.71-19.95,3.89c-1.41,4.66-2.34,9.66-4.3,12.35c-2.82,3.88-7.03,5.58-10.88,7.93
				c-4,2.46-6.19,5.5-8.52,9.76c-2.42,4.43-1.86,4.85,0.01,9.27c1.7,4.02,1.7,6.27-1.17,9.64c-5.91,6.94-10,13.06-4.33,21.1
				c3.75,5.32,5.35,9.63,4.28,16.52C532.35,337.81,530.65,341.46,529.26,344.76z M590.84,314.27c-1.14-7.87-10.87-13.76-5.51-20.9
				c5.14-6.85,6.26-10.25,1.46-17.56c-1.76-2.69-2.52-4.35-0.82-7.42c1.05-1.9,4.64-3.7,4.87-5.77c0.32-2.88-4.01-4.57-4.42-6.94
				c-0.61-3.54,3.15-4.37,4.47-6.98c0.19,0.13,0.37,0.25,0.56,0.38c3.46,2.38,7.82,3.19,11.1,5.51c3.88,2.74,5.03,6.3,2.5,10.3
				c-2.82,4.45-2.56,5.86,1.52,9.86c3.95,3.88,9.15,7.76,10.48,13.26c1.47,6.06-2.47,10.94-3.36,16.62
				c-0.81,5.17,2.52,10.97,4.72,15.41c2.5,5.04,2.71,8.37,0.07,13.47c-1.96,3.79-4.51,5.36-3.05,9.67c1.25,3.7,3.82,6.67,1.88,10.93
				c-1.33,2.91-4.49,4.77-7.18,6.28c-5.97,3.35-5.7,7.76-9.48,12.99c-3,4.16-0.68,7.27-4.21,11.26c-1.7,1.92-8.25,2.91-10.85,4.23
				c-0.69,0.35-1.39,0.69-2.1,1.02c0.92-1.37,2.08-2.74,3.56-4.34c4.02-4.32,9.39-7.92,4.06-13.45c-2.5-2.59-6.33-3.97-3.32-7.04
				c11.45-11.64,4.25-19.22,1.52-22.52c-2.05-2.46-6.68-4.96-7.66-8.15C579.27,326.63,592.05,322.62,590.84,314.27z M541.88,300.71
				c1.96-3.79,4.51-5.36,3.05-9.67c-1.25-3.7-3.82-6.67-1.88-10.93c1.33-2.91,4.48-4.77,7.18-6.29c5.97-3.35,5.7-7.76,9.48-12.99
				c3.01-4.16,0.68-7.27,4.21-11.26c1.7-1.92,8.25-2.91,10.85-4.23c0.97-0.49,1.96-0.95,2.95-1.4c-0.04,0.25-0.08,0.49-0.1,0.74
				c-0.25,4.63,2.86,4.77-0.27,9.24c-0.95,1.35-3.31,3.39-3.4,5.03c-0.13,2.48,1.56,2.46,2.59,4.41c2.55,4.83-3.57,7.29-4.52,12.16
				c-0.86,4.45,4.45,8.12,4.51,12.37c0.07,5.16-7.19,6.53-9.38,10.5c-3.39,6.16,4.78,12.92,5.27,19.08
				c0.48,6.08-4.67,9.21-7.54,13.58c-5.21,7.93,7.95,9.81,9.38,16.8c1.11,5.42-6,9.26-5,15.17c0.94,5.49,9.26,9.16,7.57,15.2
				c-0.88,3.13-5.05,4.18-6.1,7.22c-0.09,0.26-0.13,0.54-0.18,0.81c-0.55-0.36-1.1-0.74-1.66-1.12c-3.46-2.38-7.82-3.19-11.1-5.51
				c-3.88-2.74-5.03-6.3-2.5-10.3c2.82-4.45,2.56-5.86-1.52-9.86c-3.95-3.88-9.15-7.76-10.48-13.26
				c-1.47-6.06,2.46-10.94,3.36-16.62c0.81-5.17-2.52-10.97-4.72-15.41C539.45,309.14,539.24,305.81,541.88,300.71z"/>
		</g>
		<g>
			<path class="st17" d="M619.1,270.95c1.81-4.17,13.39,2.18,16.86,10.89c3.31,8.29,1.97,16.53-3.29,18.03
				c0,0-2.01-10.29-2.94-13.51C627.31,277.99,619.1,270.95,619.1,270.95z"/>
		</g>
		<path class="st44" d="M581.46,252.41c3.55,0,7.02,0.3,10.41,0.85c-25.64,8.51-44.15,32.68-44.15,61.18
			c0,32.05,23.4,58.63,54.05,63.61c-6.39,2.12-13.21,3.29-20.32,3.29c-35.6,0-64.46-28.86-64.46-64.46
			C516.99,281.27,545.85,252.41,581.46,252.41z"/>
	</g>
</g>
<g>
	<g>
		<path class="st45" d="M298.18,387.7c1.68,0,3.11-1.28,3.25-2.99l25.88-298.54c0.16-1.8-1.18-3.38-2.98-3.54
			c-1.79-0.15-3.39,1.18-3.54,2.98l-25.88,298.54c-0.16,1.8,1.18,3.39,2.98,3.54C297.99,387.7,298.08,387.7,298.18,387.7z"/>
	</g>
	<path class="st46" d="M324.06,214.2c0,4.43-3.59,8.03-8.03,8.03H212.47c-4.43,0-8.03-3.59-8.03-8.03l0,0
		c0-4.43,3.59-8.03,8.03-8.03h103.56C320.46,206.18,324.06,209.77,324.06,214.2L324.06,214.2z"/>
</g>
<path class="st17" d="M205.56,139.14c0,0,5.17,13.94,46.63,18.78c11.44,1.34,22.36-1.03,29.85-2.35
	c28.55-5.02,28.87-11.36,28.87-11.36l-0.36,13.69c0,0-5.23,6.51-27.74,10.99c-7.83,1.56-22.55,2.38-34.84,1.94
	c-44.11-1.6-44.07-18.65-44.07-18.65L205.56,139.14z"/>
<g>
	<g>
		<g>
			<path class="st47" d="M325.93,393.36c-1.25,0-2.37-0.86-2.66-2.13l-59.74-265.26c-0.33-1.47,0.59-2.93,2.06-3.26
				c1.47-0.33,2.93,0.59,3.26,2.06l59.74,265.26c0.33,1.47-0.59,2.93-2.06,3.26C326.33,393.34,326.13,393.36,325.93,393.36z"/>
		</g>
		<g>
			<path class="st47" d="M376.01,393.36c-1.45,0-2.66-1.15-2.72-2.61l-10.41-247.51c-0.06-1.5,1.1-2.77,2.61-2.84
				c1.5-0.07,2.77,1.11,2.84,2.61l10.41,247.51c0.06,1.5-1.1,2.77-2.61,2.84C376.09,393.36,376.05,393.36,376.01,393.36z"/>
		</g>
		<g>
			<path class="st47" d="M439.83,393.36c-0.04,0-0.08,0-0.12,0c-1.5-0.07-2.67-1.34-2.6-2.84l10.26-233.43
				c0.07-1.5,1.34-2.67,2.84-2.6c1.5,0.07,2.67,1.34,2.6,2.84l-10.26,233.43C442.49,392.21,441.28,393.36,439.83,393.36z"/>
		</g>
		<g>
			<path class="st47" d="M506.01,393.36c-0.12,0-0.23-0.01-0.35-0.02c-1.49-0.19-2.55-1.56-2.35-3.05l28.48-220.11
				c0.19-1.49,1.56-2.55,3.05-2.35c1.49,0.19,2.55,1.56,2.35,3.05l-28.48,220.11C508.53,392.36,507.36,393.36,506.01,393.36z"/>
		</g>
		<g>
			<path class="st47" d="M565.44,393.36c-0.24,0-0.49-0.03-0.73-0.1c-1.45-0.4-2.3-1.9-1.9-3.36l57.35-206.59
				c0.4-1.45,1.9-2.3,3.35-1.9c1.45,0.4,2.3,1.9,1.9,3.35l-57.35,206.59C567.73,392.57,566.63,393.36,565.44,393.36z"/>
		</g>
		<g>
			<path class="st47" d="M683.04,252.92c-0.14,0-0.28-0.01-0.43-0.03l-507.36-79.68c-1.49-0.23-2.5-1.63-2.27-3.12
				c0.24-1.49,1.63-2.5,3.12-2.27l507.36,79.68c1.49,0.23,2.5,1.63,2.27,3.12C685.51,251.96,684.35,252.92,683.04,252.92z"/>
		</g>
		<g>
			<path class="st47" d="M670.91,307.86c-0.13,0-0.25-0.01-0.38-0.02l-459.77-62.8c-1.49-0.21-2.53-1.58-2.33-3.07
				c0.21-1.49,1.59-2.53,3.07-2.33l459.77,62.8c1.49,0.21,2.53,1.58,2.33,3.07C673.42,306.88,672.25,307.86,670.91,307.86z"/>
		</g>
		<g>
			<path class="st47" d="M644.77,354.84c-0.07,0-0.15,0-0.22-0.01l-391.63-32.51c-1.5-0.12-2.62-1.43-2.5-2.93
				c0.12-1.5,1.43-2.62,2.93-2.5l391.63,32.51c1.5,0.12,2.62,1.43,2.5,2.93C647.37,353.75,646.18,354.84,644.77,354.84z"/>
		</g>
	</g>
	<path class="st47" d="M697.44,195.4c-7.24-10.32-20.52-16.54-41.79-19.57c-127.86-18.27-465.23-75.47-509.47-83.53l-23.34-43.6
		l-84.9-33.51c-5.6-2.21-11.93,0.54-14.14,6.14c-2.21,5.6,0.54,11.93,6.14,14.14l77.46,30.58l22.01,41.12
		c0.02,0.03,0.04,0.07,0.06,0.11l152.12,284.19c-5.95,16.19-25.99,70.76-33.6,92.66c-6.74,19.36-0.52,32.41,3.78,38.46
		c5.85,8.23,15.11,13.54,23.59,13.54H608.6c6.02,0,10.9-4.88,10.9-10.9s-4.88-10.9-10.9-10.9l-333.19,0
		c-0.86-0.07-3.94-1.36-6.21-4.85c-2.96-4.57-3.18-10.86-0.63-18.18c7.2-20.7,25.67-71.06,32.54-89.75h286.78
		c31.47,0,57.75-23.61,65.6-39.57c23.48-47.75,37.46-81.85,48.69-135.74C704.73,213.9,703.14,203.53,697.44,195.4z M680.82,221.78
		c-10.81,51.91-23.74,83.46-46.91,130.56c-3.96,8.06-22.84,27.39-46.03,27.39H300.02L159.31,116.84
		c79.91,14.49,353.75,63.81,471.02,80.56c14.49,2.07,45.81,5.61,49.25,10.51C680.37,209.04,682.76,212.44,680.82,221.78z"/>
	<g>
		<path class="st46" d="M509.44,531.16c0,24.48,19.85,44.33,44.33,44.33c24.48,0,44.33-19.85,44.33-44.33
			c0-24.48-19.85-44.33-44.33-44.33C529.28,486.83,509.44,506.68,509.44,531.16z"/>
		<path class="st17" d="M525.99,531.16c0,15.34,12.43,27.77,27.77,27.77c15.34,0,27.77-12.43,27.77-27.77
			c0-15.34-12.43-27.77-27.77-27.77C538.43,503.39,525.99,515.82,525.99,531.16z"/>
		<path class="st47" d="M548.36,531.16c0,2.98,2.42,5.4,5.4,5.4c2.98,0,5.4-2.42,5.4-5.4c0-2.98-2.42-5.4-5.4-5.4
			C550.78,525.76,548.36,528.18,548.36,531.16z"/>
		<path class="st3" d="M566.08,537.86c0-10.5-8.51-19.02-19.02-19.02c-3.31,0-6.42,0.85-9.12,2.33c3.23-5.89,9.49-9.89,16.68-9.89
			c10.5,0,19.02,8.51,19.02,19.02c0,7.19-4,13.45-9.89,16.68C565.23,544.28,566.08,541.17,566.08,537.86z"/>
	</g>
	<g>
		<path class="st46" d="M277.45,531.16c0,24.48,19.85,44.33,44.33,44.33c24.48,0,44.33-19.85,44.33-44.33
			c0-24.48-19.85-44.33-44.33-44.33C297.29,486.83,277.45,506.68,277.45,531.16z"/>
		<path class="st17" d="M294,531.16c0,15.34,12.43,27.77,27.77,27.77c15.34,0,27.77-12.43,27.77-27.77
			c0-15.34-12.43-27.77-27.77-27.77C306.44,503.39,294,515.82,294,531.16z"/>
		<path class="st47" d="M316.37,531.16c0,2.98,2.42,5.4,5.4,5.4s5.4-2.42,5.4-5.4c0-2.98-2.42-5.4-5.4-5.4
			S316.37,528.18,316.37,531.16z"/>
		<path class="st3" d="M334.09,537.86c0-10.5-8.51-19.02-19.02-19.02c-3.31,0-6.42,0.85-9.13,2.33c3.23-5.89,9.49-9.89,16.68-9.89
			c10.5,0,19.02,8.51,19.02,19.02c0,7.19-4,13.45-9.89,16.68C333.24,544.28,334.09,541.17,334.09,537.86z"/>
	</g>
	<path class="st46" d="M100.97,31.11L24.23,1.07C16.28-2.04,7.32,1.88,4.21,9.82l-3.14,8.02c-3.11,7.95,0.81,16.91,8.76,20.02
		L86.4,67.84L100.97,31.11z"/>
	<path class="st46" d="M661.16,200.97c0,14.88,12.06,26.95,26.95,26.95c14.88,0,26.95-12.07,26.95-26.95
		c0-14.88-12.07-26.95-26.95-26.95C673.22,174.02,661.16,186.08,661.16,200.97z"/>
</g>
<g>
</g>
<g>
</g>
<g>
</g>
<g>
</g>
<g>
</g>
<g>
</g>
<g>
</g>
</svg>
