<svg width="716" height="576" viewBox="0 0 716 576" fill="none" xmlns="http://www.w3.org/2000/svg">
<g id="cart 1" clip-path="url(#clip0_1_2)">
<path id="Vector" d="M384.04 582.44C534.941 582.44 657.27 577.251 657.27 570.85C657.27 564.449 534.941 559.26 384.04 559.26C233.139 559.26 110.81 564.449 110.81 570.85C110.81 577.251 233.139 582.44 384.04 582.44Z" fill="#D1D3D4"/>
<g id="Group">
<g id="cart-body">
<g id="Group_2">
<g id="Group_3">
<path id="Vector_2" d="M298.18 387.7C299.86 387.7 301.29 386.42 301.43 384.71L327.31 86.17C327.47 84.37 326.13 82.79 324.33 82.63C322.54 82.48 320.94 83.81 320.79 85.61L294.91 384.15C294.75 385.95 296.09 387.54 297.89 387.69C297.99 387.7 298.08 387.7 298.18 387.7Z" fill="#6D6E71"/>
</g>
<path id="Vector_3" d="M324.06 214.2C324.06 218.63 320.47 222.23 316.03 222.23H212.47C208.04 222.23 204.44 218.64 204.44 214.2C204.44 209.77 208.03 206.17 212.47 206.17H316.03C320.46 206.18 324.06 209.77 324.06 214.2Z" fill="#EA062B"/>
</g>
<g id="Group_4">
<g id="Group_5">
<path id="Vector_4" d="M444.39 183.395L323.469 224.78L326.014 232.216L446.935 190.831L444.39 183.395Z" fill="#939598"/>
<path id="Vector_5" d="M363.69 221.07C366.49 229.53 372.78 231.67 378.99 229.61C385.19 227.55 388.96 222.08 386.16 213.62C383.36 205.16 375.41 198.03 369.21 200.09C363 202.15 360.88 212.62 363.69 221.07Z" fill="#FBB06B"/>
<path id="Vector_6" d="M334.83 230.95C337.63 239.41 343.92 241.55 350.12 239.49C356.32 237.44 360.09 231.96 357.29 223.51C354.49 215.05 346.54 207.93 340.34 209.98C334.15 212.03 332.03 222.49 334.83 230.95Z" fill="#FBB06B"/>
<path id="Vector_7" d="M376.57 242.35L388.94 238.12L386.11 218.84L366.98 225.39L376.57 242.35Z" fill="#BCBEC0"/>
<path id="Vector_8" d="M347.72 252.23L360.08 248L357.26 228.71L338.13 235.26L347.72 252.23Z" fill="#BCBEC0"/>
<path id="Vector_9" d="M419.63 201.92C422.43 210.38 428.72 212.52 434.92 210.46C441.12 208.4 444.89 202.93 442.09 194.48C439.29 186.02 431.35 178.89 425.14 180.95C418.94 183.01 416.82 193.47 419.63 201.92Z" fill="#FBB06B"/>
<path id="Vector_10" d="M391.62 211.51C394.42 219.97 400.71 222.11 406.92 220.05C413.12 217.99 416.89 212.52 414.08 204.06C411.28 195.6 403.34 188.48 397.13 190.53C390.93 192.59 388.82 203.05 391.62 211.51Z" fill="#FBB06B"/>
<path id="Vector_11" d="M432.51 223.21L444.88 218.98L442.06 199.69L422.92 206.24L432.51 223.21Z" fill="#BCBEC0"/>
<path id="Vector_12" d="M404.5 232.79L416.87 228.56L414.05 209.27L394.91 215.82L404.5 232.79Z" fill="#BCBEC0"/>
<path id="Vector_13" d="M448.331 194.944L330.778 235.176L334.935 247.324L452.488 207.092L448.331 194.944Z" fill="#D1D3D4"/>
<path id="Vector_14" d="M451.043 189.44L326.016 232.23L327.742 237.273L452.769 194.483L451.043 189.44Z" fill="#E6E7E8"/>
<path id="Vector_15" d="M428.82 189.04C430.63 191.31 432.06 192.86 433.86 191.43C435.65 190 435.15 188.16 433.33 185.89C431.52 183.62 429 182.66 427.21 184.09C425.4 185.53 427.01 186.77 428.82 189.04Z" fill="#F9CBA5"/>
<path id="Vector_16" d="M400.94 198.59C402.75 200.86 404.18 202.41 405.97 200.98C407.77 199.55 407.26 197.71 405.44 195.43C403.63 193.16 401.11 192.2 399.31 193.64C397.53 195.07 399.13 196.31 400.94 198.59Z" fill="#F9CBA5"/>
<path id="Vector_17" d="M372.42 208.35C374.23 210.62 375.66 212.17 377.46 210.74C379.25 209.31 378.74 207.47 376.93 205.19C375.12 202.92 372.6 201.96 370.81 203.39C369 204.83 370.6 206.08 372.42 208.35Z" fill="#F9CBA5"/>
<path id="Vector_18" d="M344.54 217.89C346.35 220.16 347.78 221.71 349.57 220.28C351.37 218.85 350.86 217.01 349.04 214.73C347.23 212.46 344.71 211.5 342.91 212.93C341.13 214.37 342.73 215.62 344.54 217.89Z" fill="#F9CBA5"/>
<g id="Group_6">
<path id="Vector_19" d="M357.21 185.79L369.58 181.56L379.17 198.53L360.03 205.08L357.21 185.79Z" fill="#BCBEC0"/>
<path id="Vector_20" d="M328.36 195.67L340.72 191.44L350.31 208.41L331.18 214.96L328.36 195.67Z" fill="#BCBEC0"/>
<path id="Vector_21" d="M413.15 166.65L425.52 162.41L435.11 179.38L415.97 185.93L413.15 166.65Z" fill="#BCBEC0"/>
<path id="Vector_22" d="M385.14 176.23L397.51 172L407.1 188.97L387.96 195.52L385.14 176.23Z" fill="#BCBEC0"/>
<path id="Vector_23" d="M438.821 167.132L321.268 207.364L325.425 219.512L442.978 179.28L438.821 167.132Z" fill="#D1D3D4"/>
<path id="Vector_24" d="M446.763 176.948L321.736 219.738L323.462 224.781L448.489 181.991L446.763 176.948Z" fill="#E6E7E8"/>
</g>
</g>
<g id="Group_7">
<path id="Vector_25" d="M439.26 199.55L435.52 191.71L439.65 194L442.1 192.18L444.09 193.89L446.91 194.37L444.52 199.92L439.26 199.55Z" fill="#EF4323"/>
<path id="Vector_26" d="M432.64 289.98L428.4 297.41L432.22 295.96L434.97 298.44L435.95 296.22L439.4 297.46L438.61 290.4L432.64 289.98Z" fill="#EF4323"/>
<g id="Group_8">
<path id="Vector_27" d="M457.33 279.31C457.4 279.13 457.48 278.95 457.55 278.76C457.48 278.94 457.4 279.13 457.33 279.31Z" fill="#EF4323"/>
<path id="Vector_28" d="M459.7 208.55C459.58 208.34 459.45 208.12 459.32 207.92C459.45 208.13 459.58 208.34 459.7 208.55Z" fill="#EF4323"/>
<path id="Vector_29" d="M458.08 277.19C458.13 277.02 458.19 276.85 458.24 276.67C458.19 276.85 458.14 277.02 458.08 277.19Z" fill="#EF4323"/>
<path id="Vector_30" d="M447.79 198.51C447.45 198.39 447.11 198.27 446.76 198.17C447.1 198.27 447.45 198.39 447.79 198.51Z" fill="#EF4323"/>
<path id="Vector_31" d="M446.75 198.17C445.7 197.85 444.62 197.61 443.51 197.44C444.62 197.6 445.7 197.84 446.75 198.17Z" fill="#EF4323"/>
<path id="Vector_32" d="M462.62 218.93C462.61 218.77 462.6 218.62 462.59 218.46C462.6 218.61 462.62 218.77 462.62 218.93Z" fill="#EF4323"/>
<path id="Vector_33" d="M441.19 292.64C441.54 292.57 441.89 292.49 442.24 292.4C441.9 292.49 441.55 292.57 441.19 292.64Z" fill="#EF4323"/>
<path id="Vector_34" d="M462.44 216.7C462.42 216.52 462.38 216.34 462.36 216.17C462.39 216.34 462.42 216.52 462.44 216.7Z" fill="#EF4323"/>
<path id="Vector_35" d="M436.81 293.11C437.93 293.1 439.04 293.01 440.12 292.84C439.03 293.01 437.93 293.1 436.81 293.11Z" fill="#EF4323"/>
<path id="Vector_36" d="M435.68 293.09C436.06 293.11 436.43 293.11 436.81 293.11C436.43 293.12 436.06 293.11 435.68 293.09Z" fill="#EF4323"/>
<path id="Vector_37" d="M448.79 198.9C448.46 198.76 448.12 198.63 447.78 198.51C448.13 198.63 448.46 198.76 448.79 198.9Z" fill="#EF4323"/>
<path id="Vector_38" d="M458.84 273.75C458.86 273.63 458.88 273.5 458.89 273.37C458.88 273.5 458.85 273.63 458.84 273.75Z" fill="#EF4323"/>
<path id="Vector_39" d="M454.27 202.15C454.02 201.95 453.77 201.75 453.51 201.57C453.76 201.76 454.02 201.95 454.27 202.15Z" fill="#EF4323"/>
<path id="Vector_40" d="M455.84 203.55C455.62 203.34 455.4 203.13 455.17 202.93C455.4 203.14 455.62 203.34 455.84 203.55Z" fill="#EF4323"/>
<path id="Vector_41" d="M462.63 220.06C462.63 219.93 462.63 219.8 462.63 219.67C462.62 219.8 462.63 219.93 462.63 220.06Z" fill="#EF4323"/>
<path id="Vector_42" d="M462.56 217.81C462.55 217.64 462.53 217.47 462.51 217.3C462.52 217.47 462.55 217.64 462.56 217.81Z" fill="#EF4323"/>
<path id="Vector_43" d="M458.39 276.09C458.43 275.92 458.48 275.76 458.51 275.59C458.47 275.76 458.43 275.92 458.39 276.09Z" fill="#EF4323"/>
<path id="Vector_44" d="M450.73 199.82C450.42 199.66 450.11 199.5 449.8 199.35C450.11 199.5 450.43 199.65 450.73 199.82Z" fill="#EF4323"/>
<path id="Vector_45" d="M449.78 199.34C449.46 199.19 449.14 199.04 448.81 198.91C449.14 199.04 449.46 199.18 449.78 199.34Z" fill="#EF4323"/>
<path id="Vector_46" d="M458.64 274.96C458.67 274.8 458.71 274.65 458.73 274.49C458.7 274.65 458.67 274.8 458.64 274.96Z" fill="#EF4323"/>
<path id="Vector_47" d="M453.43 201.51C453.17 201.31 452.9 201.13 452.62 200.95C452.89 201.13 453.16 201.32 453.43 201.51Z" fill="#EF4323"/>
<path id="Vector_48" d="M447.67 273.72C447.09 282.07 442.38 289.14 435.68 293.09C435.46 293.08 435.25 293.08 435.03 293.06C422.66 292.19 413.33 281.46 414.2 269.09L414.54 264.27L448.17 266.63L447.67 273.72Z" fill="#EF4323"/>
<path id="Vector_49" d="M461.78 213.48C461.73 213.28 461.66 213.09 461.6 212.9C461.66 213.09 461.72 213.28 461.78 213.48Z" fill="#EF4323"/>
<path id="Vector_50" d="M450.86 288C451.08 287.82 451.3 287.63 451.51 287.45C451.29 287.64 451.08 287.82 450.86 288Z" fill="#EF4323"/>
<path id="Vector_51" d="M453.93 284.94C454.09 284.75 454.24 284.56 454.4 284.36C454.24 284.56 454.08 284.75 453.93 284.94Z" fill="#EF4323"/>
<path id="Vector_52" d="M450 288.67C450.24 288.49 450.47 288.31 450.7 288.13C450.48 288.32 450.24 288.49 450 288.67Z" fill="#EF4323"/>
<path id="Vector_53" d="M442.25 292.39C442.59 292.3 442.93 292.2 443.27 292.1C442.94 292.21 442.6 292.3 442.25 292.39Z" fill="#EF4323"/>
<path id="Vector_54" d="M462.05 214.54C462.01 214.35 461.95 214.16 461.9 213.97C461.95 214.16 462 214.35 462.05 214.54Z" fill="#EF4323"/>
<path id="Vector_55" d="M457.28 205.09C457.09 204.87 456.9 204.66 456.71 204.45C456.9 204.66 457.1 204.87 457.28 205.09Z" fill="#EF4323"/>
<path id="Vector_56" d="M461.45 212.45C461.38 212.25 461.31 212.05 461.23 211.85C461.31 212.05 461.39 212.25 461.45 212.45Z" fill="#EF4323"/>
<path id="Vector_57" d="M451.56 218.15L451.06 225.25L417.43 222.89L417.77 218.07C418.64 205.7 429.37 196.37 441.74 197.23C441.96 197.24 442.17 197.27 442.39 197.29C448.47 202.14 452.15 209.8 451.56 218.15Z" fill="#EF4323"/>
<path id="Vector_58" d="M449.12 289.3C449.37 289.13 449.62 288.96 449.87 288.78C449.62 288.95 449.37 289.13 449.12 289.3Z" fill="#EF4323"/>
<path id="Vector_59" d="M451.68 287.3C451.88 287.12 452.09 286.92 452.29 286.73C452.08 286.92 451.88 287.11 451.68 287.3Z" fill="#EF4323"/>
<path id="Vector_60" d="M455.82 282.26C455.93 282.07 456.05 281.88 456.16 281.69C456.05 281.89 455.94 282.07 455.82 282.26Z" fill="#EF4323"/>
<path id="Vector_61" d="M444.33 291.75C444.65 291.63 444.97 291.51 445.28 291.37C444.97 291.5 444.65 291.63 444.33 291.75Z" fill="#EF4323"/>
<path id="Vector_62" d="M461.08 211.44C461 211.23 460.91 211.03 460.83 210.83C460.92 211.03 461.01 211.23 461.08 211.44Z" fill="#EF4323"/>
<path id="Vector_63" d="M460.67 210.45C460.58 210.24 460.48 210.03 460.38 209.83C460.48 210.03 460.57 210.24 460.67 210.45Z" fill="#EF4323"/>
<path id="Vector_64" d="M457.94 205.91C457.77 205.69 457.6 205.47 457.42 205.26C457.6 205.48 457.78 205.69 457.94 205.91Z" fill="#EF4323"/>
<path id="Vector_65" d="M455.23 283.19C455.36 283 455.49 282.8 455.61 282.61C455.49 282.81 455.36 283 455.23 283.19Z" fill="#EF4323"/>
<path id="Vector_66" d="M448.21 289.88C448.48 289.72 448.74 289.55 449 289.38C448.75 289.55 448.48 289.72 448.21 289.88Z" fill="#EF4323"/>
<path id="Vector_67" d="M462.27 215.61C462.24 215.42 462.2 215.23 462.16 215.05C462.2 215.24 462.24 215.42 462.27 215.61Z" fill="#EF4323"/>
<path id="Vector_68" d="M417.456 222.883L417.257 225.726L450.886 228.082L451.085 225.239L417.456 222.883Z" fill="#3C2415"/>
<path id="Vector_69" d="M414.755 261.127L414.536 264.249L448.165 266.606L448.384 263.483L414.755 261.127Z" fill="#3C2415"/>
<path id="Vector_70" d="M417.034 228.707L414.971 258.146L448.6 260.502L450.663 231.063L417.034 228.707Z" fill="#3C2415"/>
<path id="Vector_71" d="M417.234 225.71L417.025 228.693L450.654 231.049L450.863 228.066L417.234 225.71Z" fill="#8B5E3C"/>
<path id="Vector_72" d="M414.973 258.139L414.764 261.122L448.393 263.478L448.602 260.495L414.973 258.139Z" fill="#8B5E3C"/>
<path id="Vector_73" d="M462.51 217.3C462.49 217.1 462.47 216.9 462.45 216.7C462.47 216.9 462.48 217.1 462.51 217.3Z" fill="#EF4323"/>
<path id="Vector_74" d="M462.16 215.05C462.13 214.88 462.09 214.71 462.05 214.54C462.09 214.71 462.12 214.88 462.16 215.05Z" fill="#EF4323"/>
<path id="Vector_75" d="M462.6 218.45C462.59 218.23 462.58 218.02 462.56 217.8C462.58 218.02 462.59 218.24 462.6 218.45Z" fill="#EF4323"/>
<path id="Vector_76" d="M456.16 281.69C456.23 281.56 456.3 281.43 456.37 281.3C456.3 281.44 456.23 281.57 456.16 281.69Z" fill="#EF4323"/>
<path id="Vector_77" d="M461.9 213.97C461.86 213.81 461.82 213.65 461.77 213.49C461.82 213.64 461.86 213.8 461.9 213.97Z" fill="#EF4323"/>
<path id="Vector_78" d="M455.61 282.61C455.68 282.49 455.75 282.38 455.82 282.26C455.75 282.38 455.69 282.5 455.61 282.61Z" fill="#EF4323"/>
<path id="Vector_79" d="M453.02 285.97C453.08 285.9 453.15 285.83 453.21 285.76C453.15 285.83 453.08 285.91 453.02 285.97Z" fill="#EF4323"/>
<path id="Vector_80" d="M453.73 285.19C453.8 285.11 453.86 285.03 453.93 284.95C453.86 285.02 453.79 285.1 453.73 285.19Z" fill="#EF4323"/>
<path id="Vector_81" d="M458.89 273.37C458.94 272.99 458.97 272.61 459 272.23C458.98 272.61 458.94 272.99 458.89 273.37Z" fill="#EF4323"/>
<path id="Vector_82" d="M462.58 221.21C462.61 220.83 462.62 220.45 462.63 220.07C462.62 220.44 462.6 220.82 462.58 221.21Z" fill="#EF4323"/>
<path id="Vector_83" d="M458.24 276.67C458.3 276.48 458.34 276.28 458.39 276.09C458.34 276.29 458.29 276.48 458.24 276.67Z" fill="#EF4323"/>
<path id="Vector_84" d="M449 289.38C449.04 289.35 449.08 289.33 449.12 289.3C449.08 289.32 449.04 289.35 449 289.38Z" fill="#EF4323"/>
<path id="Vector_85" d="M449.87 288.77C449.92 288.74 449.96 288.7 450 288.67C449.96 288.71 449.92 288.74 449.87 288.77Z" fill="#EF4323"/>
<path id="Vector_86" d="M461.6 212.9C461.55 212.75 461.51 212.6 461.46 212.45C461.5 212.6 461.55 212.75 461.6 212.9Z" fill="#EF4323"/>
<path id="Vector_87" d="M450.86 288C450.81 288.05 450.76 288.08 450.71 288.13C450.76 288.09 450.8 288.05 450.86 288Z" fill="#EF4323"/>
<path id="Vector_88" d="M446.25 290.94C446.27 290.93 446.29 290.92 446.32 290.91C446.29 290.91 446.27 290.93 446.25 290.94Z" fill="#EF4323"/>
<path id="Vector_89" d="M448.11 289.94C448.14 289.92 448.18 289.9 448.21 289.88C448.18 289.9 448.15 289.92 448.11 289.94Z" fill="#EF4323"/>
<path id="Vector_90" d="M445.28 291.37C445.3 291.36 445.31 291.35 445.33 291.35C445.31 291.36 445.3 291.36 445.28 291.37Z" fill="#EF4323"/>
<path id="Vector_91" d="M458.73 207C458.68 206.92 458.62 206.84 458.57 206.76C458.63 206.84 458.68 206.92 458.73 207Z" fill="#EF4323"/>
<path id="Vector_92" d="M459.32 207.92C459.26 207.83 459.21 207.73 459.15 207.65C459.21 207.73 459.27 207.82 459.32 207.92Z" fill="#EF4323"/>
<path id="Vector_93" d="M461.24 211.85C461.19 211.71 461.14 211.57 461.09 211.44C461.14 211.58 461.19 211.72 461.24 211.85Z" fill="#EF4323"/>
<path id="Vector_94" d="M457.42 205.27C457.37 205.21 457.33 205.15 457.28 205.1C457.33 205.15 457.38 205.21 457.42 205.27Z" fill="#EF4323"/>
<path id="Vector_95" d="M460.83 210.83C460.78 210.71 460.73 210.58 460.67 210.45C460.73 210.58 460.78 210.7 460.83 210.83Z" fill="#EF4323"/>
<path id="Vector_96" d="M459.87 208.86C459.81 208.76 459.76 208.65 459.7 208.55C459.76 208.65 459.82 208.76 459.87 208.86Z" fill="#EF4323"/>
<path id="Vector_97" d="M448.81 198.91C448.81 198.91 448.8 198.91 448.8 198.9C448.8 198.9 448.8 198.9 448.81 198.91Z" fill="#EF4323"/>
<path id="Vector_98" d="M452.62 200.95C452.6 200.94 452.58 200.92 452.56 200.91C452.58 200.92 452.6 200.93 452.62 200.95Z" fill="#EF4323"/>
<path id="Vector_99" d="M450.76 199.84C450.75 199.83 450.74 199.82 450.73 199.82C450.74 199.82 450.76 199.83 450.76 199.84Z" fill="#EF4323"/>
<path id="Vector_100" d="M451.71 200.37C451.7 200.36 451.68 200.35 451.66 200.34C451.68 200.35 451.69 200.36 451.71 200.37Z" fill="#EF4323"/>
<path id="Vector_101" d="M449.8 199.35C449.79 199.35 449.78 199.34 449.78 199.34C449.78 199.34 449.79 199.34 449.8 199.35Z" fill="#EF4323"/>
<path id="Vector_102" d="M455.18 202.93C455.14 202.9 455.11 202.86 455.07 202.83C455.11 202.87 455.14 202.9 455.18 202.93Z" fill="#EF4323"/>
<path id="Vector_103" d="M454.35 202.23C454.32 202.21 454.29 202.18 454.26 202.16C454.3 202.18 454.32 202.2 454.35 202.23Z" fill="#EF4323"/>
<path id="Vector_104" d="M450 288.67C449.95 288.71 449.91 288.74 449.87 288.77C449.62 288.95 449.38 289.12 449.12 289.29C449.08 289.32 449.04 289.34 449 289.37C448.74 289.54 448.48 289.71 448.21 289.87C448.18 289.89 448.15 289.91 448.11 289.93C447.84 290.09 447.56 290.25 447.27 290.4C447.24 290.41 447.22 290.43 447.19 290.45C446.9 290.61 446.61 290.75 446.31 290.9C446.29 290.91 446.26 290.92 446.24 290.93C445.94 291.07 445.63 291.21 445.32 291.34C445.3 291.35 445.29 291.35 445.27 291.36C444.95 291.49 444.64 291.62 444.32 291.74C444.31 291.75 444.3 291.75 444.28 291.75C443.95 291.87 443.62 291.98 443.29 292.08C443.28 292.09 443.27 292.09 443.27 292.09C442.93 292.2 442.59 292.29 442.25 292.38H442.24C441.89 292.47 441.54 292.55 441.19 292.62C440.84 292.69 440.48 292.76 440.12 292.82C439.04 292.99 437.93 293.08 436.81 293.09C436.44 293.09 436.06 293.09 435.68 293.07C442.38 289.12 447.09 282.05 447.67 273.7L448.17 266.6L459.34 267.38L459 272.2C458.97 272.58 458.94 272.96 458.89 273.34C458.88 273.47 458.85 273.6 458.84 273.72C458.8 273.97 458.77 274.22 458.73 274.46C458.7 274.62 458.67 274.77 458.64 274.93C458.6 275.14 458.56 275.36 458.51 275.57C458.47 275.74 458.43 275.9 458.39 276.07C458.34 276.27 458.3 276.46 458.24 276.65C458.19 276.82 458.14 276.99 458.08 277.17C458.03 277.35 457.97 277.53 457.92 277.71C457.86 277.89 457.79 278.07 457.73 278.25C457.67 278.41 457.61 278.58 457.55 278.74C457.48 278.93 457.4 279.11 457.33 279.29C457.26 279.45 457.2 279.6 457.14 279.75C457.06 279.93 456.97 280.12 456.88 280.3C456.81 280.44 456.75 280.58 456.68 280.72C456.58 280.91 456.48 281.1 456.38 281.28C456.31 281.41 456.24 281.54 456.17 281.67C456.06 281.86 455.95 282.05 455.83 282.24C455.76 282.36 455.69 282.48 455.62 282.59C455.5 282.78 455.37 282.97 455.24 283.17C455.17 283.27 455.1 283.38 455.03 283.48C454.89 283.68 454.75 283.87 454.61 284.05C454.54 284.15 454.47 284.24 454.4 284.34C454.25 284.53 454.09 284.73 453.93 284.92C453.86 285 453.8 285.08 453.73 285.16C453.56 285.36 453.39 285.55 453.22 285.74C453.16 285.81 453.09 285.88 453.03 285.95C452.85 286.14 452.66 286.34 452.47 286.52C452.41 286.58 452.35 286.64 452.29 286.7C452.09 286.89 451.89 287.08 451.68 287.27C451.62 287.32 451.57 287.37 451.51 287.42C451.3 287.61 451.08 287.8 450.86 287.97C450.81 288.02 450.76 288.05 450.71 288.1C450.48 288.31 450.24 288.49 450 288.67Z" fill="#C4301C"/>
<path id="Vector_105" d="M451.56 218.15C452.14 209.81 448.47 202.15 442.39 197.3C442.77 197.34 443.14 197.39 443.51 197.44C444.62 197.61 445.7 197.85 446.75 198.17C447.1 198.28 447.44 198.39 447.78 198.51C448.12 198.63 448.45 198.76 448.79 198.9C448.79 198.9 448.8 198.9 448.8 198.91C449.13 199.04 449.45 199.19 449.77 199.34C449.78 199.34 449.79 199.35 449.79 199.35C450.1 199.5 450.42 199.66 450.72 199.82C450.73 199.82 450.74 199.83 450.75 199.84C451.05 200 451.35 200.17 451.65 200.34C451.67 200.35 451.68 200.36 451.7 200.37C451.99 200.54 452.27 200.72 452.55 200.91C452.57 200.92 452.59 200.94 452.61 200.95C452.88 201.13 453.15 201.32 453.42 201.51C453.45 201.53 453.47 201.55 453.5 201.57C453.76 201.76 454.01 201.95 454.26 202.15C454.29 202.18 454.32 202.2 454.35 202.22C454.59 202.42 454.83 202.62 455.07 202.83C455.11 202.86 455.14 202.89 455.18 202.93C455.4 203.13 455.63 203.34 455.85 203.55C455.89 203.59 455.93 203.63 455.97 203.67C456.18 203.88 456.38 204.09 456.59 204.3C456.63 204.35 456.68 204.4 456.72 204.45C456.91 204.66 457.1 204.87 457.29 205.09C457.34 205.15 457.39 205.21 457.43 205.26C457.61 205.47 457.78 205.69 457.95 205.91C458 205.98 458.05 206.04 458.1 206.11C458.26 206.32 458.42 206.54 458.57 206.76C458.63 206.84 458.68 206.92 458.73 207C458.88 207.21 459.02 207.42 459.16 207.64C459.22 207.73 459.27 207.82 459.33 207.91C459.46 208.12 459.59 208.33 459.71 208.54C459.77 208.64 459.82 208.75 459.88 208.85C460 209.06 460.11 209.27 460.22 209.48C460.27 209.59 460.33 209.71 460.38 209.82C460.48 210.03 460.58 210.23 460.67 210.44C460.73 210.57 460.78 210.69 460.83 210.82C460.92 211.02 461.01 211.22 461.08 211.43C461.13 211.57 461.18 211.71 461.23 211.84C461.3 212.04 461.38 212.24 461.45 212.44C461.5 212.59 461.54 212.74 461.59 212.89C461.65 213.09 461.72 213.28 461.77 213.47C461.82 213.63 461.85 213.79 461.9 213.95C461.95 214.14 462 214.33 462.05 214.52C462.09 214.69 462.12 214.86 462.16 215.03C462.2 215.21 462.24 215.4 462.27 215.59C462.31 215.77 462.33 215.96 462.36 216.15C462.39 216.33 462.42 216.5 462.44 216.68C462.47 216.88 462.48 217.08 462.5 217.28C462.52 217.45 462.54 217.62 462.55 217.79C462.57 218 462.58 218.22 462.59 218.44C462.6 218.6 462.61 218.76 462.62 218.91C462.63 219.16 462.63 219.41 462.62 219.66C462.62 219.79 462.62 219.92 462.62 220.05C462.61 220.43 462.59 220.81 462.57 221.19L462.23 226.01L451.06 225.23L451.56 218.15Z" fill="#C4301C"/>
<path id="Vector_106" d="M448.391 263.476L448.173 266.599L459.346 267.382L459.564 264.259L448.391 263.476Z" fill="#1E1109"/>
<path id="Vector_107" d="M450.651 231.095L448.582 260.531L459.754 261.316L461.823 231.88L450.651 231.095Z" fill="#1E1109"/>
<path id="Vector_108" d="M451.063 225.213L450.864 228.057L462.037 228.839L462.236 225.996L451.063 225.213Z" fill="#1E1109"/>
<path id="Vector_109" d="M450.858 228.107L450.648 231.1L461.82 231.884L462.03 228.891L450.858 228.107Z" fill="#5B3B24"/>
<path id="Vector_110" d="M448.599 260.497L448.39 263.48L459.563 264.263L459.772 261.28L448.599 260.497Z" fill="#5B3B24"/>
</g>
</g>
<g id="Group_9">
<path id="Vector_111" d="M292.7 237.37C322.02 229.43 331.98 242.19 331.98 242.19L244.57 287.03L292.7 237.37Z" fill="#F9A01B"/>
<path id="Vector_112" d="M331.98 242.2L244.57 287.04L255.43 308.21C258.22 307.5 261.24 308.76 262.61 311.43C263.98 314.1 263.25 317.29 261.04 319.14L263.79 324.49L327.11 292.01C325.3 287.81 326.99 282.87 331.12 280.75C335.25 278.63 340.25 280.14 342.61 284.06L351.19 279.66L331.98 242.2ZM269.85 300.09C265.31 302.42 259.75 300.62 257.42 296.08C255.09 291.54 256.88 285.97 261.42 283.65C265.96 281.32 271.53 283.11 273.86 287.65C276.19 292.19 274.39 297.76 269.85 300.09ZM297.52 299.04C294.76 300.46 291.38 299.37 289.96 296.61C288.54 293.85 289.63 290.47 292.39 289.05C295.15 287.63 298.53 288.72 299.95 291.48C301.37 294.25 300.28 297.63 297.52 299.04ZM308.43 281.88C304.87 283.71 300.49 282.3 298.67 278.74C296.84 275.17 298.25 270.8 301.81 268.97C305.37 267.14 309.74 268.55 311.57 272.12C313.4 275.68 311.99 280.05 308.43 281.88ZM331.63 269.97C329.96 270.82 327.92 270.17 327.06 268.5C326.21 266.83 326.87 264.79 328.53 263.93C330.2 263.08 332.24 263.73 333.1 265.4C333.96 267.07 333.3 269.12 331.63 269.97Z" fill="#FED600"/>
<path id="Vector_113" d="M331.12 280.75C326.99 282.87 325.29 287.81 327.11 292.01L342.62 284.06C340.25 280.14 335.25 278.63 331.12 280.75Z" fill="#F9A01B"/>
<path id="Vector_114" d="M262.6 311.43C261.23 308.76 258.22 307.49 255.42 308.21L261.03 319.15C263.25 317.29 263.98 314.1 262.6 311.43Z" fill="#F9A01B"/>
<path id="Vector_115" d="M261.42 283.65C256.88 285.98 255.09 291.54 257.42 296.08C259.75 300.62 265.31 302.41 269.85 300.09C274.39 297.76 276.19 292.19 273.86 287.65C271.53 283.11 265.96 281.32 261.42 283.65Z" fill="#F9A01B"/>
<path id="Vector_116" d="M292.4 289.05C289.64 290.46 288.55 293.85 289.97 296.61C291.38 299.37 294.77 300.46 297.53 299.04C300.29 297.62 301.38 294.24 299.96 291.48C298.54 288.72 295.15 287.64 292.4 289.05Z" fill="#F9A01B"/>
<path id="Vector_117" d="M328.54 263.94C326.88 264.8 326.22 266.84 327.07 268.51C327.93 270.18 329.97 270.83 331.64 269.98C333.31 269.13 333.97 267.08 333.11 265.41C332.25 263.74 330.2 263.09 328.54 263.94Z" fill="#F9A01B"/>
<path id="Vector_118" d="M301.81 268.97C298.24 270.8 296.84 275.17 298.67 278.74C300.5 282.3 304.87 283.71 308.43 281.88C311.99 280.05 313.4 275.68 311.58 272.12C309.75 268.55 305.37 267.15 301.81 268.97Z" fill="#F9A01B"/>
</g>
<g id="Group_10">
<path id="Vector_119" d="M415.07 251.63C414.91 242.41 404.93 236.31 391.96 237.53C375.57 239.07 350.73 245.99 336.47 262.63C324.9 276.14 320.56 290.24 329.31 299.8C344.09 315.93 357.99 301.63 366.74 291.12C373.32 283.22 386.69 268.72 396.22 264.86C405.43 261.13 415.22 260.4 415.07 251.63Z" fill="#6B163C"/>
<path id="Vector_120" d="M401.43 243.5C382.78 245.26 354.5 253.13 338.26 272.07C331.97 279.41 327.57 286.9 325.76 293.91C322.41 284.89 327.03 273.49 336.47 262.49C350.73 245.85 375.58 238.93 391.97 237.39C401.01 236.54 408.6 239.25 412.42 244.09C409.1 243.36 405.39 243.13 401.43 243.5Z" fill="#4C0A2A"/>
<path id="Vector_121" d="M421.02 247.41L435.24 247.72L434.85 251.32L418.57 251.29C418.57 251.29 424.93 254.36 424.73 259.77C424.65 261.94 417 255.79 417 255.79C417 255.79 416.95 262.41 407.8 265.75C404.5 266.96 412.51 254.17 412.51 254.17C412.51 254.17 396.86 253.19 398.99 251.13C401.31 248.88 413.17 245.92 413.17 245.92C413.17 245.92 400.26 236.14 400.64 235.88C408.99 230.17 416.15 243.51 416.15 243.51C416.15 243.51 413.4 233.56 414.23 233.85C424.47 237.45 421.02 247.41 421.02 247.41Z" fill="#90AC3D"/>
<path id="Vector_122" d="M355.39 292.84C349.75 298.3 342.44 300.59 336.31 299.45C341.1 303.46 349.18 302.43 354.91 296.88C358.04 293.84 359.84 290.07 360.21 286.45C359 288.73 357.4 290.9 355.39 292.84Z" fill="white"/>
<path id="Vector_123" d="M415.37 245.31C414.85 244.46 414.45 243.73 414.32 243.54C408.1 234.36 401.5 235.07 402.41 234.94C402.73 234.9 408.76 231.53 416.96 242.95C417.83 244.16 418.68 245.61 418.84 246.82L435.23 247.73L435.1 248.92L419.31 248.4C419.72 249.62 419.32 251.51 418.79 253.11C414.42 266.48 407.46 265.7 407.14 265.75C406.24 265.9 412.93 263.98 416.09 253.35C416.17 253.08 416.41 251.86 416.75 250.6C415.79 251.08 414.82 251.41 414.52 251.48C410.73 252.37 398.47 251.89 398.98 251.13C399.16 250.86 406.35 246.37 413.11 245.06C413.8 244.92 414.59 245.04 415.37 245.31Z" fill="#ACC941"/>
</g>
<g id="Group_11">
<path id="Vector_124" d="M486.33 140.86C486.33 140.86 493.12 198.4 486.05 215.73C484.41 219.74 473.98 228.14 473.98 228.14C473.98 228.14 471.16 196.47 472.53 186.03C474.07 174.33 486.33 140.86 486.33 140.86Z" fill="#688300"/>
<path id="Vector_125" d="M502.22 122.36C502.22 122.36 482.25 176.75 485.11 195.25C485.77 199.53 493.97 210.13 493.97 210.13C493.97 210.13 502.56 179.72 505.15 169.51C509.84 151.08 502.22 122.36 502.22 122.36Z" fill="#576F00"/>
<path id="Vector_126" d="M499.03 215.7C499.03 215.7 503.43 208.78 506.58 194.6C508.12 187.65 513.08 166.89 513.08 166.89C513.08 166.89 496.59 187.09 492.25 182.28C478.78 167.33 468.4 159.28 468.4 159.28C468.4 159.28 468.79 182.39 468.02 190.04C467.09 199.36 461.03 226.86 461.03 226.86L477.91 249.67L499.03 215.7Z" fill="#405A2A"/>
<path id="Vector_127" d="M469.98 198.88C464.17 223.64 465.88 245.22 473.79 247.08C481.71 248.94 492.83 230.37 498.64 205.61C504.45 180.85 502.74 159.27 494.83 157.41C486.92 155.55 475.79 174.12 469.98 198.88Z" fill="#FFC017"/>
<path id="Vector_128" d="M478.12 188.41C474.14 205.37 474.92 220.06 479.86 221.22C484.8 222.38 492.03 209.57 496.01 192.61C499.99 175.65 499.21 160.96 494.27 159.8C489.33 158.64 482.1 171.45 478.12 188.41Z" fill="#FFE03E"/>
<path id="Vector_129" d="M456.38 203.37C456.38 203.37 461.02 210.52 460.69 219.93C460.43 227.38 451.4 246.75 453.64 253.86C455.49 259.74 457.33 263.64 465.27 265.5C467.52 266.03 477.47 262.84 477.47 262.84C477.47 262.84 473.43 248.17 472.26 242.01C471 235.4 473.54 222.9 467.82 211.79C464.03 204.42 456.38 203.37 456.38 203.37Z" fill="#739100"/>
<path id="Vector_130" d="M461.71 272.5L471.28 272.99L474.37 259.81L465.2 257.65L461.71 272.5Z" fill="#A8D137"/>
<g id="Group_12">
<path id="Vector_131" d="M492.46 163.32C493.69 162.04 496.56 165.64 496.65 169.3C496.73 172.78 495.51 176.99 493.5 175.74C492.15 174.91 493.35 172.19 493.45 170.88C493.69 167.49 490.75 165.1 492.46 163.32Z" fill="white"/>
</g>
<path id="Vector_132" d="M511.01 211.91C511.01 211.91 502.53 217.4 498.09 226.77C494.42 234.52 492.06 255.24 486.12 261.42C481.21 266.52 477.31 269.6 468.18 267.46C459.37 265.39 457.58 261.62 457.58 261.62C457.58 261.62 469.76 250.26 474.12 244.52C478.81 238.35 481.75 224.83 494.91 214.74C502.48 208.92 511.01 211.91 511.01 211.91Z" fill="#90B400"/>
<path id="Vector_133" d="M486.55 200.86C486.23 202.22 487.07 203.58 488.43 203.9L493.02 204.98C494.38 205.3 495.73 204.45 496.05 203.1C496.37 201.74 495.53 200.39 494.17 200.06L489.58 198.98C488.23 198.66 486.87 199.5 486.55 200.86Z" fill="#FFC017"/>
<path id="Vector_134" d="M480.14 206.79C479.82 208.15 480.66 209.51 482.02 209.82L486.61 210.9C487.97 211.22 489.33 210.38 489.64 209.02C489.96 207.66 489.12 206.3 487.76 205.98L483.17 204.9C481.82 204.59 480.46 205.43 480.14 206.79Z" fill="#FFC017"/>
<path id="Vector_135" d="M479.03 193.91C478.71 195.27 479.56 196.63 480.91 196.95L485.5 198.03C486.86 198.35 488.22 197.51 488.54 196.15C488.86 194.79 488.02 193.43 486.66 193.11L482.07 192.03C480.71 191.71 479.35 192.55 479.03 193.91Z" fill="#FFC017"/>
<path id="Vector_136" d="M475.64 186.99C475.32 188.35 476.16 189.71 477.52 190.03L482.11 191.11C483.47 191.43 484.83 190.59 485.14 189.23C485.46 187.87 484.62 186.52 483.26 186.2L478.67 185.12C477.32 184.79 475.96 185.63 475.64 186.99Z" fill="#FFC017"/>
<path id="Vector_137" d="M491.12 186.28C490.8 187.64 491.64 189 493 189.32L497.59 190.4C498.95 190.72 500.31 189.88 500.63 188.52C500.95 187.16 500.11 185.8 498.75 185.48L494.16 184.4C492.8 184.07 491.44 184.92 491.12 186.28Z" fill="#FFC017"/>
<path id="Vector_138" d="M481.73 169.31C481.41 170.67 482.25 172.03 483.61 172.35L488.2 173.43C489.56 173.75 490.92 172.91 491.23 171.55C491.55 170.19 490.71 168.83 489.35 168.51L484.76 167.43C483.41 167.11 482.05 167.95 481.73 169.31Z" fill="#FFC017"/>
</g>
<g id="Group_13">
<path id="Vector_139" d="M415.24 276.044L415.187 282.314L421.547 282.368L421.6 276.098L415.24 276.044Z" fill="#840719"/>
<path id="Vector_140" d="M377.323 275.715L377.27 281.985L397.33 282.155L397.383 275.885L377.323 275.715Z" fill="#840719"/>
<path id="Vector_141" d="M425.1 267.17L425.02 276.14L421.59 276.11L415.23 276.06L415.26 273.12L415.31 267.09L425.1 267.17Z" fill="#FED600"/>
<path id="Vector_142" d="M397.46 266.94L397.4 272.97L397.38 275.91L377.32 275.74L373.89 275.71L373.96 266.74L397.46 266.94Z" fill="#FED600"/>
<path id="Vector_143" d="M396.46 382.65L372.98 382.45C368.76 382.41 365.37 378.96 365.4 374.74L365.59 352.83L396.71 353.1L396.46 382.65Z" fill="#BD161E"/>
<path id="Vector_144" d="M431.98 353.39L431.79 375.3C431.75 379.52 428.3 382.91 424.08 382.88L414.31 382.8L414.56 353.25L431.98 353.39Z" fill="#BD161E"/>
<path id="Vector_145" d="M421.54 282.38L424.95 282.41C429.17 282.45 432.56 285.9 432.53 290.12L432.36 309.72L414.94 309.57L415.02 300.52L415.18 282.33L421.54 282.38Z" fill="#BD161E"/>
<path id="Vector_146" d="M373.85 281.97L377.26 282L397.32 282.17L397.16 300.37L397.08 309.42L365.96 309.15L366.13 289.55C366.18 285.33 369.63 281.94 373.85 281.97Z" fill="#BD161E"/>
<path id="Vector_147" d="M414.617 348.806L414.579 353.226L431.999 353.376L432.037 348.956L414.617 348.806Z" fill="#D1D3D4"/>
<path id="Vector_148" d="M414.952 309.553L414.914 313.893L432.334 314.043L432.372 309.703L414.952 309.553Z" fill="#D1D3D4"/>
<path id="Vector_149" d="M365.985 309.136L365.948 313.476L397.068 313.743L397.105 309.403L365.985 309.136Z" fill="#D1D3D4"/>
<path id="Vector_150" d="M365.65 348.391L365.612 352.811L396.732 353.079L396.77 348.659L365.65 348.391Z" fill="#D1D3D4"/>
<path id="Vector_151" d="M414.915 313.896L414.615 348.816L432.035 348.965L432.335 314.045L414.915 313.896Z" fill="#FED600"/>
<path id="Vector_152" d="M365.947 313.481L365.649 348.401L396.769 348.666L397.067 313.746L365.947 313.481Z" fill="#FED600"/>
<path id="Vector_153" d="M397.388 275.892L397.334 282.162L415.184 282.316L415.238 276.046L397.388 275.892Z" fill="#A00B1A"/>
<path id="Vector_154" d="M415.31 267.09L415.26 273.12L415.23 276.06L397.38 275.91L397.4 272.97L397.46 266.94L415.31 267.09Z" fill="#F9F916"/>
<path id="Vector_155" d="M396.732 353.08L396.479 382.63L414.329 382.783L414.582 353.233L396.732 353.08Z" fill="#D61E30"/>
<path id="Vector_156" d="M415.18 282.33L415.02 300.52L414.94 309.57L397.09 309.41L397.17 300.37L397.32 282.17L415.18 282.33Z" fill="#D61E30"/>
<path id="Vector_157" d="M397.099 309.397L397.062 313.737L414.912 313.889L414.949 309.549L397.099 309.397Z" fill="white"/>
<path id="Vector_158" d="M396.764 348.661L396.727 353.081L414.577 353.234L414.614 348.814L396.764 348.661Z" fill="white"/>
<path id="Vector_159" d="M397.062 313.739L396.762 348.659L414.612 348.812L414.912 313.892L397.062 313.739Z" fill="#F9F916"/>
<path id="Vector_160" d="M386.523 373.289L386.443 382.549L419.223 382.83L419.303 373.57L386.523 373.289Z" fill="#BD161E"/>
<path id="Vector_161" d="M387.304 282.07L387.235 290.151L420.015 290.432L420.084 282.352L387.304 282.07Z" fill="#BD161E"/>
</g>
<g id="Group_14">
<path id="Vector_162" d="M291.8 310.13C274.55 329.08 275.02 357.61 292.86 373.85C310.7 390.1 339.14 387.91 356.4 368.96C373.66 350.02 373.18 321.49 355.34 305.24C337.5 288.99 309.05 291.18 291.8 310.13Z" fill="#C9E536"/>
<path id="Vector_163" d="M295.4 305.93C296.13 301.39 303.38 293.68 307.77 292.34C309.58 291.79 313.23 294.33 315.11 294.13C317.53 293.87 321.49 289.36 323.87 289.88C326.47 290.45 328.42 296.64 330.66 298.09C332.35 299.2 337.55 298.47 338.44 300.29C339.29 302.02 335.1 305.59 335.57 307.46C336.34 310.46 344.52 312.3 345.11 315.33C345.53 317.46 341.01 320.81 340.99 322.99C340.97 325.16 345.65 328.63 344.97 330.7C343.22 336.08 324.75 340.81 324.75 340.81L305.17 327.86C305.17 327.87 294.44 311.86 295.4 305.93Z" fill="#9DC12B"/>
<path id="Vector_164" d="M368.93 354.86C372.62 352.12 376.11 342.13 375.27 337.61C374.93 335.75 370.99 333.69 370.3 331.93C369.42 329.66 371.58 324.07 370.03 322.2C368.33 320.16 361.93 321.28 359.61 319.98C357.85 318.99 356.09 314.05 354.07 314.1C352.14 314.14 350.91 319.51 349.03 319.95C346.02 320.65 340.61 314.25 337.64 315.12C335.55 315.73 334.67 321.29 332.75 322.31C330.83 323.33 325.59 320.79 324.07 322.33C320.11 326.36 303.62 359.72 303.62 359.72L344.96 356.33C344.96 356.32 364.11 358.44 368.93 354.86Z" fill="#A8D137"/>
<path id="Vector_165" d="M298.27 386C305.55 388.64 323.78 376.34 323.9 368.59C323.96 365.08 316.75 360.27 316.31 356.79C315.66 351.64 324.6 341.97 322.85 337.08C321.69 333.84 312.79 332.79 311.2 329.73C309.73 326.88 313.62 319.6 311.88 316.9C310.74 315.14 305.21 315.61 304.06 313.85C302.68 311.73 306.06 305.72 304.5 303.73C303.24 302.13 298.18 303.33 296.5 302.18C294.35 300.71 293.5 292.82 290.95 293.35C287.06 294.15 290.05 305.39 288.49 309.04C287.06 312.37 281.98 317.77 279.63 320.53C255.75 348.57 282.28 380.19 298.27 386Z" fill="#7CA52B"/>
<path id="Vector_166" d="M301.97 384.06C295.89 379.26 296.78 357.28 303.31 353.1C306.26 351.21 314.15 354.81 317.34 353.35C322.06 351.19 325.59 338.5 330.67 337.42C334.04 336.7 339.61 343.73 343.04 343.47C346.24 343.22 350.38 336.09 353.6 336.15C355.69 336.19 358.2 341.15 360.3 341.2C362.83 341.26 366.16 335.22 368.68 335.51C370.71 335.74 372.35 340.68 374.21 341.51C376.6 342.56 383.75 339.14 384.64 341.59C386 345.32 374.87 348.68 372.59 351.93C370.51 354.9 368.58 362.05 367.47 365.51C356.17 400.56 315.32 394.61 301.97 384.06Z" fill="#90B400"/>
<g id="Group_15">
<path id="Vector_167" d="M357.49 360.86C361.21 361.53 358.25 370.87 351.87 375.36C345.8 379.63 336.9 382.46 336.71 377.41C336.59 374.03 342.83 372.93 345.25 371.56C351.56 367.97 352.3 359.93 357.49 360.86Z" fill="white"/>
</g>
</g>
<g id="Group_16">
<path id="Vector_168" d="M482.535 281.655L432.012 287.922L444.539 388.919L495.062 382.652L482.535 281.655Z" fill="#FED600"/>
<path id="Vector_169" d="M480.61 265.93L430.087 272.202L432.033 287.882L482.556 281.609L480.61 265.93Z" fill="#FEAB00"/>
<path id="Vector_170" d="M430.1 272.21C429.53 266.53 433.58 261.41 439.27 260.7L468.86 257.03C474.55 256.32 479.72 260.3 480.56 265.95L430.1 272.21Z" fill="#FED600"/>
<path id="Vector_171" d="M462.96 269.24L463.72 275.35C464.02 277.75 460.9 280.11 456.76 280.63C452.62 281.14 449.02 279.61 448.73 277.22L447.97 271.11L462.96 269.24Z" fill="#BCBEC0"/>
<path id="Vector_172" d="M447.97 271.1C448.27 273.5 451.86 275.03 456 274.51C460.14 273.99 463.26 271.63 462.96 269.24C462.66 266.84 459.07 265.31 454.93 265.83C450.79 266.34 447.68 268.7 447.97 271.1Z" fill="#E6E7E8"/>
<path id="Vector_173" d="M477.627 296.67L440.471 301.283L442.305 316.05L479.46 311.437L477.627 296.67Z" fill="white"/>
<path id="Vector_174" d="M472.736 317.882L450.397 320.653L450.911 324.801L473.25 322.03L472.736 317.882Z" fill="white"/>
<path id="Vector_175" d="M479.208 327.142L446.42 331.213L446.935 335.361L479.723 331.291L479.208 327.142Z" fill="white"/>
<path id="Vector_176" d="M450.19 360.47C451.3 369.44 459.47 375.8 468.44 374.69C477.41 373.58 483.77 365.41 482.66 356.44C481.55 347.47 473.38 341.11 464.41 342.22C455.44 343.33 449.08 351.5 450.19 360.47Z" fill="#FEAB00"/>
</g>
<g id="Group_17">
<path id="Vector_177" d="M591.9 104.3C579.77 99.38 564.03 106.47 548.03 122.07L563.83 128.49C567.49 129.98 569.25 134.14 567.76 137.8C566.27 141.46 562.11 143.22 558.45 141.74L537.69 133.32C534.65 136.96 531.62 140.89 528.63 145.07L553.07 154.99C556.73 156.48 558.49 160.64 557 164.3C555.52 167.96 551.35 169.72 547.69 168.23L520.54 157.21C518.06 161.2 515.62 165.36 513.24 169.68L542.31 181.49C545.97 182.97 547.73 187.14 546.25 190.79C544.76 194.46 540.59 196.22 536.93 194.73L506.64 182.43C504.58 186.65 502.57 190.98 500.65 195.43L531.56 207.97C535.21 209.45 536.98 213.62 535.49 217.28C534.01 220.94 529.84 222.71 526.18 221.22L495.27 208.68C493.54 213.21 491.96 217.71 490.5 222.17L520.8 234.47C524.46 235.95 526.22 240.13 524.74 243.78C523.26 247.44 519.09 249.2 515.43 247.71L486.36 235.91C485.05 240.66 483.9 245.35 482.9 249.95L510.04 260.96C513.7 262.45 515.46 266.62 513.98 270.27C512.5 273.93 508.32 275.69 504.67 274.21L480.23 264.29C479.45 269.38 478.9 274.29 478.54 279.03L499.28 287.46C502.94 288.94 504.71 293.11 503.22 296.77C501.74 300.43 497.57 302.19 493.91 300.7L478.11 294.29C478.71 316.62 485.06 332.68 497.19 337.61C497.51 337.74 497.84 337.82 498.17 337.94C498.45 338.09 498.75 338.22 499.05 338.34C505.9 340.93 513.6 337.61 516.36 330.78L526.2 306.54L591.05 146.77L600.89 122.53C603.66 115.71 600.46 107.96 593.74 105.05C593.44 104.94 593.13 104.82 592.82 104.73C592.52 104.6 592.23 104.44 591.9 104.3Z" fill="#F88729"/>
<path id="Vector_178" d="M535.5 217.29C536.99 213.63 535.22 209.46 531.57 207.98L500.66 195.44C499.72 197.62 498.79 199.8 497.89 202.02C496.99 204.24 496.12 206.47 495.28 208.69L526.19 221.23C529.85 222.71 534.01 220.95 535.5 217.29Z" fill="#C64817"/>
<path id="Vector_179" d="M524.74 243.79C526.22 240.13 524.46 235.96 520.8 234.48L490.5 222.18C488.98 226.82 487.6 231.4 486.36 235.93L515.43 247.73C519.09 249.21 523.26 247.44 524.74 243.79Z" fill="#C64817"/>
<path id="Vector_180" d="M557.01 164.29C558.49 160.63 556.73 156.46 553.08 154.98L528.64 145.06C525.9 148.91 523.2 152.96 520.55 157.21L547.7 168.23C551.36 169.71 555.52 167.96 557.01 164.29Z" fill="#C64817"/>
<path id="Vector_181" d="M546.26 190.79C547.74 187.14 545.98 182.97 542.32 181.49L513.25 169.68C510.99 173.79 508.78 178.05 506.65 182.43L536.94 194.73C540.6 196.22 544.77 194.45 546.26 190.79Z" fill="#C64817"/>
<path id="Vector_182" d="M567.77 137.79C569.25 134.13 567.49 129.97 563.84 128.48L548.04 122.06C544.6 125.42 541.14 129.19 537.71 133.3L558.47 141.72C562.11 143.22 566.28 141.45 567.77 137.79Z" fill="#C64817"/>
<path id="Vector_183" d="M513.99 270.29C515.47 266.63 513.71 262.47 510.05 260.98L482.91 249.97C481.84 254.86 480.96 259.65 480.24 264.31L504.68 274.23C508.33 275.71 512.5 273.94 513.99 270.29Z" fill="#C64817"/>
<path id="Vector_184" d="M503.23 296.79C504.72 293.13 502.96 288.96 499.29 287.48L478.55 279.05C478.14 284.39 478 289.51 478.13 294.31L493.93 300.72C497.58 302.21 501.75 300.45 503.23 296.79Z" fill="#C64817"/>
</g>
<g id="Group_18">
<path id="Vector_185" d="M663.2 143L664.4 137.28L685.18 141.63L683.98 147.35C683.98 147.35 692.6 178.48 691.21 185.15L690.91 186.6L688.47 198.22L673.05 271.87C672.63 273.87 670.67 275.15 668.67 274.73L626.12 265.82C624.12 265.4 622.84 263.44 623.26 261.44L638.69 187.79L641.12 176.17L641.43 174.72C642.81 168.06 663.2 143 663.2 143Z" fill="#E6E7E8"/>
<g id="Group_19">
<g id="Group_20">
<path id="Vector_186" d="M669.03 125.08L667.06 134.5L669.48 135.01L671.52 125.3L673.94 125.81L671.91 135.52L674.33 136.03L676.36 126.32L678.78 126.83L676.75 136.54L679.17 137.05L681.2 127.34L683.62 127.85L681.58 137.56L684 138.07L685.96 128.69C687.78 129.85 688.79 132.04 688.32 134.28L687.36 138.84L663.52 133.85L664.48 129.29C664.95 126.98 666.83 125.36 669.03 125.08Z" fill="#27AAE1"/>
<path id="Vector_187" d="M681.57 137.54L683.61 127.83L684.2 127.95C684.84 128.08 685.43 128.34 685.96 128.67L684 138.05L681.57 137.54Z" fill="#1C75BC"/>
<path id="Vector_188" d="M678.739 126.78L676.706 136.49L679.123 136.996L681.157 127.287L678.739 126.78Z" fill="#1C75BC"/>
<path id="Vector_189" d="M673.941 125.8L671.909 135.51L674.327 136.016L676.359 126.307L673.941 125.8Z" fill="#1C75BC"/>
<path id="Vector_190" d="M667.05 134.5L669.02 125.08C669.59 125.01 670.18 125.02 670.78 125.15L671.51 125.3L669.47 135.01L667.05 134.5Z" fill="#1C75BC"/>
</g>
<path id="Vector_191" d="M663.687 132.993L662.861 136.937L686.705 141.931L687.531 137.987L663.687 132.993Z" fill="#1C75BC"/>
</g>
<path id="Vector_192" d="M681.91 184.3L682.19 182.93C683.45 176.94 676.12 150 675.44 147.55L676.44 142.79L680.64 143.67L680.05 146.48C680.05 146.48 688.61 177.36 687.22 183.97L686.92 185.41L684.5 196.94L669.98 266.29L664.88 265.22C664.97 265 665.05 264.77 665.1 264.53L679.61 195.23L681.91 184.3Z" fill="white"/>
<path id="Vector_193" d="M639.236 185.184L628.328 237.266L678.13 247.696L689.038 195.614L639.236 185.184Z" fill="#D1D3D4"/>
<path id="Vector_194" d="M661.85 139.74C661.71 140.4 662.13 141.04 662.79 141.18L685.08 145.85C685.74 145.99 686.39 145.57 686.53 144.91C686.67 144.25 686.24 143.61 685.59 143.47L663.3 138.8C662.63 138.65 661.98 139.08 661.85 139.74Z" fill="#BCBEC0"/>
</g>
<g id="Group_21">
<g id="Group_22">
<path id="Vector_195" d="M520.1 266.84L519.66 266.24C519.66 266.24 534.31 239.47 572.36 235.33C606.06 231.66 628.89 257.14 628.89 257.14L628.1 258.73C620.81 253.44 600.13 240.69 573.26 243.6C545.57 246.63 527.76 259.86 520.1 266.84Z" fill="#FED600"/>
<path id="Vector_196" d="M574.19 252.19C550.46 254.77 531.76 262.61 521.05 268.15L520.09 266.84C527.74 259.86 545.56 246.62 573.25 243.61C600.12 240.69 620.8 253.44 628.09 258.74L627.32 260.3C617.86 256.22 598.1 249.59 574.19 252.19Z" fill="#FBC71C"/>
<path id="Vector_197" d="M575.63 257.24C555.09 259.47 522.93 270.72 522.93 270.72L521.06 268.15C531.77 262.61 550.47 254.77 574.2 252.19C598.11 249.59 617.86 256.22 627.34 260.3L626.78 261.42C626.78 261.42 597.32 254.87 575.63 257.24Z" fill="#F9A01B"/>
<path id="Vector_198" d="M519.61 266.23L523.15 270.64C522.77 270.88 522.07 271.22 521.6 271.27C519.99 271.44 518.55 270.34 518.38 268.8C518.27 267.77 518.78 266.8 519.61 266.23Z" fill="#475324"/>
<path id="Vector_199" d="M626.52 259.94L629.59 261.5L630.49 258.91L627.44 257.71L626.52 259.94Z" fill="#FED600"/>
</g>
<g id="Group_23">
<path id="Vector_200" d="M523.05 234.59L522.8 233.89C522.8 233.89 544.55 212.48 582.17 219.49C615.49 225.7 630.01 256.67 630.01 256.67L628.8 257.97C623.34 250.8 607.22 232.63 580.65 227.68C553.27 222.57 532.39 230.11 523.05 234.59Z" fill="#FED600"/>
<path id="Vector_201" d="M579.07 236.16C555.6 231.79 535.44 233.91 523.58 236.13L523.04 234.6C532.39 230.12 553.26 222.58 580.64 227.68C607.21 232.63 623.33 250.8 628.79 257.97L627.61 259.24C619.72 252.6 602.71 240.55 579.07 236.16Z" fill="#FBC71C"/>
<path id="Vector_202" d="M578.98 241.4C558.67 237.62 524.63 239.12 524.63 239.12L523.58 236.13C535.44 233.91 555.59 231.79 579.07 236.16C602.71 240.56 619.72 252.61 627.62 259.24L626.77 260.15C626.76 260.15 600.44 245.39 578.98 241.4Z" fill="#F9A01B"/>
<path id="Vector_203" d="M522.76 233.86L524.88 239.11C524.44 239.23 523.67 239.35 523.21 239.27C521.62 238.97 520.56 237.5 520.84 235.98C521.03 234.95 521.8 234.17 522.76 233.86Z" fill="#475324"/>
<path id="Vector_204" d="M627.08 259.13L629.56 261.52L631.18 259.29L628.6 257.26L627.08 259.13Z" fill="#FED600"/>
</g>
<g id="Group_24">
<path id="Vector_205" d="M536.12 203.98L536.08 203.24C536.08 203.24 563.01 188.89 597.1 206.29C627.29 221.7 632.41 255.53 632.41 255.53L630.87 256.43C627.67 248 617.37 226.01 593.3 213.71C568.51 201.03 546.36 202.33 536.12 203.98Z" fill="#FED600"/>
<path id="Vector_206" d="M589.4 221.38C568.14 210.53 548.21 206.83 536.21 205.59L536.13 203.97C546.37 202.33 568.52 201.03 593.33 213.7C617.4 226 627.7 247.99 630.9 256.42L629.4 257.3C623.7 248.69 610.81 232.32 589.4 221.38Z" fill="#FBC71C"/>
<path id="Vector_207" d="M587.82 226.38C569.42 216.98 536.36 208.76 536.36 208.76L536.2 205.59C548.2 206.83 568.13 210.52 589.39 221.38C610.81 232.31 623.69 248.69 629.38 257.3L628.3 257.93C628.31 257.93 607.26 236.3 587.82 226.38Z" fill="#F9A01B"/>
<path id="Vector_208" d="M536.06 203.2L536.6 208.83C536.15 208.82 535.38 208.72 534.95 208.51C533.51 207.77 532.91 206.06 533.61 204.68C534.09 203.74 535.04 203.22 536.06 203.2Z" fill="#475324"/>
<path id="Vector_209" d="M628.91 257.05L630.61 260.04L632.79 258.37L630.89 255.68L628.91 257.05Z" fill="#FED600"/>
</g>
<g id="Group_25">
<path id="Vector_210" d="M559.62 174.98L559.83 174.27C559.83 174.27 590 169.71 616.34 197.48C639.67 222.07 633.23 255.67 633.23 255.67L631.48 256.01C631.27 247 628.89 222.83 610.3 203.21C591.14 183 569.82 176.84 559.62 174.98Z" fill="#FED600"/>
<path id="Vector_211" d="M604.05 209.15C587.62 191.82 570.06 181.7 559.16 176.53L559.62 174.98C569.81 176.84 591.14 183 610.31 203.21C628.9 222.83 631.29 247 631.49 256.01L629.78 256.34C627.29 246.33 620.61 226.59 604.05 209.15Z" fill="#FBC71C"/>
<path id="Vector_212" d="M600.9 213.34C586.68 198.35 558.25 179.58 558.25 179.58L559.16 176.54C570.06 181.71 587.61 191.83 604.05 209.16C620.6 226.61 627.29 246.34 629.79 256.35L628.56 256.59C628.56 256.58 615.92 229.17 600.9 213.34Z" fill="#F9A01B"/>
<path id="Vector_213" d="M559.82 174.23L558.46 179.72C558.04 179.56 557.34 179.21 557.02 178.87C555.9 177.7 555.91 175.88 557.03 174.82C557.78 174.08 558.86 173.91 559.82 174.23Z" fill="#475324"/>
<path id="Vector_214" d="M629.42 255.94L630.03 259.33L632.64 258.48L631.75 255.32L629.42 255.94Z" fill="#FED600"/>
</g>
<g id="Group_26">
<path id="Vector_215" d="M598.36 152.15L598.84 151.58C598.84 151.58 628.28 159.62 641.14 195.67C652.53 227.6 633.05 255.71 633.05 255.71L631.32 255.31C634.78 246.99 642.38 223.91 633.3 198.45C623.94 172.23 606.93 157.98 598.36 152.15Z" fill="#FED600"/>
<path id="Vector_216" d="M625.17 201.37C617.15 178.88 605.19 162.52 597.31 153.38L598.36 152.15C606.93 157.98 623.94 172.23 633.29 198.47C642.36 223.93 634.76 247 631.31 255.33L629.62 254.94C631.38 244.78 633.25 224.02 625.17 201.37Z" fill="#FBC71C"/>
<path id="Vector_217" d="M620.59 203.93C613.65 184.47 595.24 155.8 595.24 155.8L597.3 153.38C605.18 162.51 617.14 178.88 625.16 201.37C633.24 224.02 631.37 244.78 629.61 254.94L628.39 254.66C628.4 254.66 627.93 224.48 620.59 203.93Z" fill="#F9A01B"/>
<path id="Vector_218" d="M598.84 151.54L595.37 156.01C595.05 155.7 594.55 155.09 594.39 154.64C593.84 153.11 594.59 151.46 596.04 150.94C597.04 150.59 598.09 150.86 598.84 151.54Z" fill="#475324"/>
<path id="Vector_219" d="M629.44 254.42L628.62 257.77L631.36 258.05L631.82 254.79L629.44 254.42Z" fill="#FED600"/>
</g>
</g>
<g id="Group_27">
<g id="Group_28">
<path id="Vector_220" d="M617.74 366.27C621.74 363.81 623.93 360.77 626.26 356.51C628.68 352.08 628.12 351.66 626.25 347.25C624.55 343.23 624.55 340.98 627.42 337.61C633.33 330.67 637.42 324.55 631.75 316.52C627.99 311.2 626.4 306.88 627.47 300C628.03 296.44 629.72 292.78 631.11 289.48C631.79 287.84 633.88 285.21 633.55 283.35C633.02 280.32 626.32 277.52 623.75 276.14C619.39 273.81 615.94 272.23 615.13 267.06C614.44 262.66 615.44 257.04 615.23 251.99C638.53 264.21 654.44 288.67 654.44 316.88C654.44 350.01 632.51 377.98 602.43 387C603.92 382.22 604.84 376.99 606.86 374.21C609.68 370.32 613.89 368.63 617.74 366.27Z" fill="#8DD13F"/>
<path id="Vector_221" d="M577.37 253.93C576.42 255.28 574.06 257.32 573.97 258.96C573.84 261.44 575.53 261.42 576.56 263.37C579.11 268.2 572.99 270.66 572.04 275.53C571.18 279.98 576.49 283.65 576.55 287.9C576.62 293.06 569.36 294.43 567.17 298.4C563.78 304.56 571.95 311.32 572.44 317.48C572.92 323.56 567.77 326.69 564.9 331.06C559.69 338.99 572.85 340.87 574.28 347.86C575.39 353.28 568.28 357.12 569.28 363.03C570.22 368.52 578.54 372.19 576.85 378.23C575.97 381.36 571.8 382.41 570.75 385.45C570.66 385.71 570.62 385.99 570.57 386.26C570.02 385.9 569.47 385.52 568.91 385.14C565.45 382.76 561.09 381.95 557.81 379.63C553.93 376.89 552.78 373.33 555.31 369.33C558.13 364.88 557.87 363.47 553.79 359.47C549.84 355.59 544.64 351.71 543.31 346.21C541.84 340.15 545.77 335.27 546.67 329.59C547.48 324.42 544.15 318.62 541.95 314.18C539.45 309.15 539.24 305.81 541.88 300.71C543.84 296.92 546.39 295.35 544.93 291.04C543.68 287.34 541.11 284.37 543.05 280.11C544.38 277.2 547.53 275.34 550.23 273.82C556.2 270.47 555.93 266.06 559.71 260.83C562.72 256.67 560.39 253.56 563.92 249.57C565.62 247.65 572.17 246.66 574.77 245.34C575.74 244.85 576.73 244.39 577.72 243.94C577.68 244.19 577.64 244.43 577.62 244.68C577.38 249.32 580.5 249.46 577.37 253.93Z" fill="#8DD13F"/>
<path id="Vector_222" d="M591.12 372.11C588.62 369.52 584.79 368.14 587.8 365.07C599.25 353.43 592.05 345.85 589.32 342.55C587.27 340.09 582.64 337.59 581.66 334.4C579.28 326.63 592.06 322.62 590.85 314.26C589.71 306.39 579.98 300.5 585.34 293.36C590.48 286.51 591.6 283.11 586.8 275.8C585.04 273.11 584.28 271.45 585.98 268.38C587.03 266.48 590.62 264.68 590.85 262.61C591.17 259.73 586.84 258.04 586.43 255.67C585.82 252.13 589.58 251.3 590.9 248.69C591.09 248.82 591.27 248.94 591.46 249.07C594.92 251.45 599.28 252.26 602.56 254.58C606.44 257.32 607.59 260.88 605.06 264.88C602.24 269.33 602.5 270.74 606.58 274.74C610.53 278.62 615.73 282.5 617.06 288C618.53 294.06 614.59 298.94 613.7 304.62C612.89 309.79 616.22 315.59 618.42 320.03C620.92 325.07 621.13 328.4 618.49 333.5C616.53 337.29 613.98 338.86 615.44 343.17C616.69 346.87 619.26 349.84 617.32 354.1C615.99 357.01 612.83 358.87 610.14 360.38C604.17 363.73 604.44 368.14 600.66 373.37C597.66 377.53 599.98 380.64 596.45 384.63C594.75 386.55 588.2 387.54 585.6 388.86C584.91 389.21 584.21 389.55 583.5 389.88C584.42 388.51 585.58 387.14 587.06 385.54C591.08 381.23 596.46 377.64 591.12 372.11Z" fill="#8DD13F"/>
<path id="Vector_223" d="M508.63 316.87C508.63 284.79 529.2 257.55 557.81 247.67C556.4 252.33 555.47 257.33 553.51 260.02C550.69 263.9 546.48 265.6 542.63 267.95C538.63 270.41 536.44 273.45 534.11 277.71C531.69 282.14 532.25 282.56 534.12 286.98C535.82 291 535.82 293.25 532.95 296.62C527.04 303.56 522.95 309.68 528.62 317.72C532.37 323.04 533.97 327.35 532.9 334.24C532.34 337.81 530.65 341.46 529.26 344.76C528.57 346.4 526.49 349.03 526.82 350.89C527.35 353.92 534.05 356.73 536.62 358.1C540.99 360.43 544.43 362.01 545.24 367.18C545.84 371.01 545.16 375.77 545.11 380.26C523.31 367.61 508.63 343.97 508.63 316.87Z" fill="#8DD13F"/>
<path id="Vector_224" d="M529.26 344.76C528.57 346.4 526.49 349.03 526.82 350.89C527.35 353.92 534.05 356.73 536.62 358.1C540.99 360.43 544.43 362.01 545.24 367.18C545.84 371.01 545.16 375.77 545.11 380.26C552.87 384.76 561.53 387.88 570.76 389.26C572.25 389.48 573.76 389.65 575.28 389.78C577.34 389.95 579.43 390.07 581.53 390.07C582.1 390.07 582.66 390.04 583.22 390.03C583.28 390.03 583.35 390.03 583.41 390.02C590 389.85 596.38 388.81 602.42 387C603.91 382.22 604.83 376.99 606.85 374.21C609.67 370.33 613.88 368.63 617.73 366.28C621.73 363.82 623.92 360.78 626.25 356.52C628.67 352.09 628.11 351.67 626.24 347.26C624.54 343.24 624.54 340.99 627.41 337.62C633.32 330.68 637.41 324.56 631.74 316.53C627.98 311.21 626.39 306.89 627.46 300.01C628.02 296.45 629.71 292.79 631.1 289.49C631.78 287.85 633.87 285.22 633.54 283.36C633.01 280.33 626.31 277.53 623.74 276.15C619.38 273.82 615.93 272.24 615.12 267.07C614.43 262.67 615.43 257.05 615.22 252C607.62 248.01 599.23 245.34 590.34 244.26C588.58 244.05 586.8 243.88 585 243.79C583.84 243.74 582.68 243.7 581.51 243.7C580.36 243.7 579.22 243.74 578.09 243.79C577.97 243.8 577.86 243.79 577.74 243.8C570.79 244.15 564.1 245.51 557.79 247.69C556.38 252.35 555.45 257.35 553.49 260.04C550.67 263.92 546.46 265.62 542.61 267.97C538.61 270.43 536.42 273.47 534.09 277.73C531.67 282.16 532.23 282.58 534.1 287C535.8 291.02 535.8 293.27 532.93 296.64C527.02 303.58 522.93 309.7 528.6 317.74C532.35 323.06 533.95 327.37 532.88 334.26C532.35 337.81 530.65 341.46 529.26 344.76ZM590.84 314.27C589.7 306.4 579.97 300.51 585.33 293.37C590.47 286.52 591.59 283.12 586.79 275.81C585.03 273.12 584.27 271.46 585.97 268.39C587.02 266.49 590.61 264.69 590.84 262.62C591.16 259.74 586.83 258.05 586.42 255.68C585.81 252.14 589.57 251.31 590.89 248.7C591.08 248.83 591.26 248.95 591.45 249.08C594.91 251.46 599.27 252.27 602.55 254.59C606.43 257.33 607.58 260.89 605.05 264.89C602.23 269.34 602.49 270.75 606.57 274.75C610.52 278.63 615.72 282.51 617.05 288.01C618.52 294.07 614.58 298.95 613.69 304.63C612.88 309.8 616.21 315.6 618.41 320.04C620.91 325.08 621.12 328.41 618.48 333.51C616.52 337.3 613.97 338.87 615.43 343.18C616.68 346.88 619.25 349.85 617.31 354.11C615.98 357.02 612.82 358.88 610.13 360.39C604.16 363.74 604.43 368.15 600.65 373.38C597.65 377.54 599.97 380.65 596.44 384.64C594.74 386.56 588.19 387.55 585.59 388.87C584.9 389.22 584.2 389.56 583.49 389.89C584.41 388.52 585.57 387.15 587.05 385.55C591.07 381.23 596.44 377.63 591.11 372.1C588.61 369.51 584.78 368.13 587.79 365.06C599.24 353.42 592.04 345.84 589.31 342.54C587.26 340.08 582.63 337.58 581.65 334.39C579.27 326.63 592.05 322.62 590.84 314.27ZM541.88 300.71C543.84 296.92 546.39 295.35 544.93 291.04C543.68 287.34 541.11 284.37 543.05 280.11C544.38 277.2 547.53 275.34 550.23 273.82C556.2 270.47 555.93 266.06 559.71 260.83C562.72 256.67 560.39 253.56 563.92 249.57C565.62 247.65 572.17 246.66 574.77 245.34C575.74 244.85 576.73 244.39 577.72 243.94C577.68 244.19 577.64 244.43 577.62 244.68C577.37 249.31 580.48 249.45 577.35 253.92C576.4 255.27 574.04 257.31 573.95 258.95C573.82 261.43 575.51 261.41 576.54 263.36C579.09 268.19 572.97 270.65 572.02 275.52C571.16 279.97 576.47 283.64 576.53 287.89C576.6 293.05 569.34 294.42 567.15 298.39C563.76 304.55 571.93 311.31 572.42 317.47C572.9 323.55 567.75 326.68 564.88 331.05C559.67 338.98 572.83 340.86 574.26 347.85C575.37 353.27 568.26 357.11 569.26 363.02C570.2 368.51 578.52 372.18 576.83 378.22C575.95 381.35 571.78 382.4 570.73 385.44C570.64 385.7 570.6 385.98 570.55 386.25C570 385.89 569.45 385.51 568.89 385.13C565.43 382.75 561.07 381.94 557.79 379.62C553.91 376.88 552.76 373.32 555.29 369.32C558.11 364.87 557.85 363.46 553.77 359.46C549.82 355.58 544.62 351.7 543.29 346.2C541.82 340.14 545.75 335.26 546.65 329.58C547.46 324.41 544.13 318.61 541.93 314.17C539.45 309.14 539.24 305.81 541.88 300.71Z" fill="#33510C"/>
</g>
<g id="Group_29">
<path id="Vector_225" d="M619.1 270.95C620.91 266.78 632.49 273.13 635.96 281.84C639.27 290.13 637.93 298.37 632.67 299.87C632.67 299.87 630.66 289.58 629.73 286.36C627.31 277.99 619.1 270.95 619.1 270.95Z" fill="white"/>
</g>
<path id="Vector_226" opacity="0.6" d="M581.46 252.41C585.01 252.41 588.48 252.71 591.87 253.26C566.23 261.77 547.72 285.94 547.72 314.44C547.72 346.49 571.12 373.07 601.77 378.05C595.38 380.17 588.56 381.34 581.45 381.34C545.85 381.34 516.99 352.48 516.99 316.88C516.99 281.27 545.85 252.41 581.46 252.41Z" fill="#33510C"/>
</g>
</g>
<path id="Vector_227" d="M697.44 195.4C690.2 185.08 676.92 178.86 655.65 175.83C527.79 157.56 190.42 100.36 146.18 92.3L122.84 48.7L37.94 15.19C32.34 12.98 26.01 15.73 23.8 21.33C21.59 26.93 24.34 33.26 29.94 35.47L107.4 66.05L129.41 107.17C129.43 107.2 129.45 107.24 129.47 107.28L281.59 391.47C275.64 407.66 255.6 462.23 247.99 484.13C241.25 503.49 247.47 516.54 251.77 522.59C257.62 530.82 266.88 536.13 275.36 536.13H608.6C614.62 536.13 619.5 531.25 619.5 525.23C619.5 519.21 614.62 514.33 608.6 514.33H275.41C274.55 514.26 271.47 512.97 269.2 509.48C266.24 504.91 266.02 498.62 268.57 491.3C275.77 470.6 294.24 420.24 301.11 401.55H587.89C619.36 401.55 645.64 377.94 653.49 361.98C676.97 314.23 690.95 280.13 702.18 226.24C704.73 213.9 703.14 203.53 697.44 195.4ZM680.82 221.78C670.01 273.69 657.08 305.24 633.91 352.34C629.95 360.4 611.07 379.73 587.88 379.73H300.02L159.31 116.84C239.22 131.33 513.06 180.65 630.33 197.4C644.82 199.47 676.14 203.01 679.58 207.91C680.37 209.04 682.76 212.44 680.82 221.78Z" fill="#414042"/>
<path id="Vector_228" d="M100.97 31.11L24.23 1.07C16.28 -2.04 7.32 1.88 4.21 9.82L1.07 17.84C-2.04 25.79 1.88 34.75 9.83 37.86L86.4 67.84L100.97 31.11Z" fill="#EA062B"/>
<path id="Vector_229" d="M661.16 200.97C661.16 215.85 673.22 227.92 688.11 227.92C702.99 227.92 715.06 215.85 715.06 200.97C715.06 186.09 702.99 174.02 688.11 174.02C673.22 174.02 661.16 186.08 661.16 200.97Z" fill="#EA062B"/>
<path id="Vector_230" d="M205.56 139.14C205.56 139.14 210.73 153.08 252.19 157.92C263.63 159.26 274.55 156.89 282.04 155.57C310.59 150.55 310.91 144.21 310.91 144.21L310.55 157.9C310.55 157.9 305.32 164.41 282.81 168.89C274.98 170.45 260.26 171.27 247.97 170.83C203.86 169.23 203.9 152.18 203.9 152.18L205.56 139.14Z" fill="white"/>
<g id="Group_30">
<g id="Group_31">
<path id="Vector_231" d="M325.93 393.36C324.68 393.36 323.56 392.5 323.27 391.23L263.53 125.97C263.2 124.5 264.12 123.04 265.59 122.71C267.06 122.38 268.52 123.3 268.85 124.77L328.59 390.03C328.92 391.5 328 392.96 326.53 393.29C326.33 393.34 326.13 393.36 325.93 393.36Z" fill="#414042"/>
</g>
<g id="Group_32">
<path id="Vector_232" d="M376.01 393.36C374.56 393.36 373.35 392.21 373.29 390.75L362.88 143.24C362.82 141.74 363.98 140.47 365.49 140.4C366.99 140.33 368.26 141.51 368.33 143.01L378.74 390.52C378.8 392.02 377.64 393.29 376.13 393.36C376.09 393.36 376.05 393.36 376.01 393.36Z" fill="#414042"/>
</g>
<g id="Group_33">
<path id="Vector_233" d="M439.83 393.36C439.79 393.36 439.75 393.36 439.71 393.36C438.21 393.29 437.04 392.02 437.11 390.52L447.37 157.09C447.44 155.59 448.71 154.42 450.21 154.49C451.71 154.56 452.88 155.83 452.81 157.33L442.55 390.76C442.49 392.21 441.28 393.36 439.83 393.36Z" fill="#414042"/>
</g>
<g id="Group_34">
<path id="Vector_234" d="M506.01 393.36C505.89 393.36 505.78 393.35 505.66 393.34C504.17 393.15 503.11 391.78 503.31 390.29L531.79 170.18C531.98 168.69 533.35 167.63 534.84 167.83C536.33 168.02 537.39 169.39 537.19 170.88L508.71 390.99C508.53 392.36 507.36 393.36 506.01 393.36Z" fill="#414042"/>
</g>
<g id="Group_35">
<path id="Vector_235" d="M565.44 393.36C565.2 393.36 564.95 393.33 564.71 393.26C563.26 392.86 562.41 391.36 562.81 389.9L620.16 183.31C620.56 181.86 622.06 181.01 623.51 181.41C624.96 181.81 625.81 183.31 625.41 184.76L568.06 391.35C567.73 392.57 566.63 393.36 565.44 393.36Z" fill="#414042"/>
</g>
<g id="Group_36">
<path id="Vector_236" d="M683.04 252.92C682.9 252.92 682.76 252.91 682.61 252.89L175.25 173.21C173.76 172.98 172.75 171.58 172.98 170.09C173.22 168.6 174.61 167.59 176.1 167.82L683.46 247.5C684.95 247.73 685.96 249.13 685.73 250.62C685.51 251.96 684.35 252.92 683.04 252.92Z" fill="#414042"/>
</g>
<g id="Group_37">
<path id="Vector_237" d="M670.91 307.86C670.78 307.86 670.66 307.85 670.53 307.84L210.76 245.04C209.27 244.83 208.23 243.46 208.43 241.97C208.64 240.48 210.02 239.44 211.5 239.64L671.27 302.44C672.76 302.65 673.8 304.02 673.6 305.51C673.42 306.88 672.25 307.86 670.91 307.86Z" fill="#414042"/>
</g>
<g id="Group_38">
<path id="Vector_238" d="M644.77 354.84C644.7 354.84 644.62 354.84 644.55 354.83L252.92 322.32C251.42 322.2 250.3 320.89 250.42 319.39C250.54 317.89 251.85 316.77 253.35 316.89L644.98 349.4C646.48 349.52 647.6 350.83 647.48 352.33C647.37 353.75 646.18 354.84 644.77 354.84Z" fill="#414042"/>
</g>
</g>
</g>
<g id="right-wheel">
<path id="Vector_239" d="M509.44 531.16C509.44 555.64 529.29 575.49 553.77 575.49C578.25 575.49 598.1 555.64 598.1 531.16C598.1 506.68 578.25 486.83 553.77 486.83C529.28 486.83 509.44 506.68 509.44 531.16Z" fill="#EA062B"/>
<path id="Vector_240" d="M525.99 531.16C525.99 546.5 538.42 558.93 553.76 558.93C569.1 558.93 581.53 546.5 581.53 531.16C581.53 515.82 569.1 503.39 553.76 503.39C538.43 503.39 525.99 515.82 525.99 531.16Z" fill="white"/>
<path id="Vector_241" d="M548.36 531.16C548.36 534.14 550.78 536.56 553.76 536.56C556.74 536.56 559.16 534.14 559.16 531.16C559.16 528.18 556.74 525.76 553.76 525.76C550.78 525.76 548.36 528.18 548.36 531.16Z" fill="#414042"/>
<path id="Vector_242" d="M566.08 537.86C566.08 527.36 557.57 518.84 547.06 518.84C543.75 518.84 540.64 519.69 537.94 521.17C541.17 515.28 547.43 511.28 554.62 511.28C565.12 511.28 573.64 519.79 573.64 530.3C573.64 537.49 569.64 543.75 563.75 546.98C565.23 544.28 566.08 541.17 566.08 537.86Z" fill="#BCBEC0"/>
</g>
<g id="left-wheel">
<path id="Vector_243" d="M277.45 531.16C277.45 555.64 297.3 575.49 321.78 575.49C346.26 575.49 366.11 555.64 366.11 531.16C366.11 506.68 346.26 486.83 321.78 486.83C297.29 486.83 277.45 506.68 277.45 531.16Z" fill="#EA062B"/>
<path id="Vector_244" d="M294 531.16C294 546.5 306.43 558.93 321.77 558.93C337.11 558.93 349.54 546.5 349.54 531.16C349.54 515.82 337.11 503.39 321.77 503.39C306.44 503.39 294 515.82 294 531.16Z" fill="white"/>
<path id="Vector_245" d="M316.37 531.16C316.37 534.14 318.79 536.56 321.77 536.56C324.75 536.56 327.17 534.14 327.17 531.16C327.17 528.18 324.75 525.76 321.77 525.76C318.79 525.76 316.37 528.18 316.37 531.16Z" fill="#414042"/>
<path id="Vector_246" d="M334.09 537.86C334.09 527.36 325.58 518.84 315.07 518.84C311.76 518.84 308.65 519.69 305.94 521.17C309.17 515.28 315.43 511.28 322.62 511.28C333.12 511.28 341.64 519.79 341.64 530.3C341.64 537.49 337.64 543.75 331.75 546.98C333.24 544.28 334.09 541.17 334.09 537.86Z" fill="#BCBEC0"/>
</g>
</g>
</g>
<defs>
<clipPath id="clip0_1_2">
<rect width="715.06" height="575.49" fill="white"/>
</clipPath>
</defs>
</svg>
